<?xml version="1.0" encoding="utf-8"?>
<!-- Generator: Adobe Illustrator 25.0.0, SVG Export Plug-In . SVG Version: 6.00 Build 0)  -->
<svg version="1.1" id="Layer_1" xmlns="http://www.w3.org/2000/svg" xmlns:xlink="http://www.w3.org/1999/xlink" x="0px" y="0px"
	 viewBox="0 0 110 110" style="enable-background:new 0 0 110 110;" xml:space="preserve">
<style type="text/css">
	.st0{fill:url(#SVGID_1_);}
	.st1{opacity:0.3;fill:url(#SVGID_2_);enable-background:new    ;}
	.st2{fill:url(#SVGID_3_);}
	.st3{fill:url(#SVGID_4_);}
	.st4{opacity:5.000000e-02;fill:#1D1D1B;enable-background:new    ;}
	.st5{fill:url(#SVGID_5_);}
	.st6{fill:#F3F3F3;}
</style>
<g>
	<g id="Layer_2_1_">
		<g id="OBJECTS">
			
				<image style="overflow:visible;opacity:0.75;enable-background:new    ;" width="110" height="110" xlink:href="F27C6281.png"  transform="matrix(1.0698 0 0 1.0698 0 1.1313)">
			</image>
			
				<linearGradient id="SVGID_1_" gradientUnits="userSpaceOnUse" x1="53.3614" y1="99.1011" x2="53.3614" y2="17.7966" gradientTransform="matrix(1 0 0 -1 0 112)">
				<stop  offset="0" style="stop-color:#DD9B17"/>
				<stop  offset="2.000000e-02" style="stop-color:#E3A929"/>
				<stop  offset="6.000000e-02" style="stop-color:#EDBF48"/>
				<stop  offset="0.1" style="stop-color:#F5D160"/>
				<stop  offset="0.15" style="stop-color:#FBDD72"/>
				<stop  offset="0.19" style="stop-color:#FEE57C"/>
				<stop  offset="0.25" style="stop-color:#FFE77F"/>
				<stop  offset="0.36" style="stop-color:#FBDD72"/>
				<stop  offset="0.57" style="stop-color:#EFC34E"/>
				<stop  offset="0.84" style="stop-color:#DD9B17"/>
				<stop  offset="0.9" style="stop-color:#C58A14"/>
				<stop  offset="0.99" style="stop-color:#A6740F"/>
			</linearGradient>
			<path class="st0" d="M94,53.6C94,76,75.8,94.2,53.4,94.2S12.7,76,12.7,53.6s18.2-40.7,40.7-40.7C75.8,12.8,94,31,94,53.4
				C94,53.4,94,53.5,94,53.6z"/>
			
				<linearGradient id="SVGID_2_" gradientUnits="userSpaceOnUse" x1="58.6894" y1="72.9348" x2="37.6466" y2="15.8719" gradientTransform="matrix(1 0 0 -1 0 112)">
				<stop  offset="0" style="stop-color:#DD9B17"/>
				<stop  offset="2.000000e-02" style="stop-color:#E3A929"/>
				<stop  offset="6.000000e-02" style="stop-color:#EDBF48"/>
				<stop  offset="0.1" style="stop-color:#F5D160"/>
				<stop  offset="0.15" style="stop-color:#FBDD72"/>
				<stop  offset="0.19" style="stop-color:#FEE57C"/>
				<stop  offset="0.25" style="stop-color:#FFE77F"/>
				<stop  offset="0.36" style="stop-color:#FBDD72"/>
				<stop  offset="0.57" style="stop-color:#EFC34E"/>
				<stop  offset="0.84" style="stop-color:#DD9B17"/>
				<stop  offset="0.9" style="stop-color:#C58A14"/>
				<stop  offset="0.99" style="stop-color:#A6740F"/>
			</linearGradient>
			<path class="st1" d="M91.1,68.8c-8.2,20.9-31.8,31.2-52.7,22.9S7.2,59.9,15.4,39c0.8-2,1.8-4,2.9-5.8
				C25.7,44,48.4,70.4,91.1,68.8z"/>
			
				<linearGradient id="SVGID_3_" gradientUnits="userSpaceOnUse" x1="53.3935" y1="13.7528" x2="53.3935" y2="104.343" gradientTransform="matrix(1 0 0 -1 0 112)">
				<stop  offset="0" style="stop-color:#DD9B17"/>
				<stop  offset="2.000000e-02" style="stop-color:#E3A929"/>
				<stop  offset="6.000000e-02" style="stop-color:#EDBF48"/>
				<stop  offset="0.1" style="stop-color:#F5D160"/>
				<stop  offset="0.15" style="stop-color:#FBDD72"/>
				<stop  offset="0.19" style="stop-color:#FEE57C"/>
				<stop  offset="0.25" style="stop-color:#FFE77F"/>
				<stop  offset="0.36" style="stop-color:#FBDD72"/>
				<stop  offset="0.57" style="stop-color:#EFC34E"/>
				<stop  offset="0.84" style="stop-color:#DD9B17"/>
				<stop  offset="0.9" style="stop-color:#C58A14"/>
				<stop  offset="0.99" style="stop-color:#A6740F"/>
			</linearGradient>
			<path class="st2" d="M53.4,99C28.3,99,8,78.6,8,53.5C8,28.4,28.3,8.1,53.4,8.1c25.1,0,45.4,20.3,45.4,45.4c0,0,0,0,0,0
				C98.8,78.6,78.5,98.9,53.4,99z M53.4,17.7c-19.8,0-35.8,16-35.8,35.8s16,35.8,35.8,35.8c19.8,0,35.8-16,35.8-35.8
				C89.2,33.8,73.2,17.8,53.4,17.7z"/>
			
				<linearGradient id="SVGID_4_" gradientUnits="userSpaceOnUse" x1="59.4803" y1="25.7666" x2="59.4803" y2="104.2788" gradientTransform="matrix(1 0 0 -1 0 112)">
				<stop  offset="0" style="stop-color:#FFFFFF;stop-opacity:0.6"/>
				<stop  offset="1" style="stop-color:#FFFFFF;stop-opacity:0"/>
			</linearGradient>
			<path class="st3" d="M53.4,8.1c-12.7,0-24.7,5.3-33.3,14.6C38.3,5.4,67,6.1,84.3,24.3c16.7,17.5,16.7,45,0,62.6
				c18.4-17,19.6-45.7,2.6-64.2C78.2,13.4,66.1,8.1,53.4,8.1z"/>
			<path class="st4" d="M55.9,96.4c-25.1,0-45.4-20.3-45.4-45.4c0-11.5,4.3-22.5,12.1-30.9C4.4,37.4,3.7,66.2,21,84.4
				s46,18.9,64.2,1.6c0.6-0.5,1.1-1.1,1.6-1.6C78.4,92.2,67.4,96.5,55.9,96.4z"/>
			
				<radialGradient id="SVGID_5_" cx="66.9965" cy="72.1675" r="14.1588" gradientTransform="matrix(1 0 0 -1 0 112)" gradientUnits="userSpaceOnUse">
				<stop  offset="0" style="stop-color:#FFFFFF;stop-opacity:0.6"/>
				<stop  offset="1" style="stop-color:#FFFFFF;stop-opacity:0"/>
			</radialGradient>
			<path class="st5" d="M74.9,31.9c6.4,6.5,8.2,15.3,3.8,19.7c-4.4,4.4-13.2,2.7-19.7-3.8s-8.2-15.3-3.8-19.7S68.5,25.4,74.9,31.9z"
				/>
			
				<image style="overflow:visible;opacity:0.6;enable-background:new    ;" width="50" height="52" xlink:href="F27C6283.png"  transform="matrix(1.0698 0 0 1.0698 29.9543 26.8063)">
			</image>
			<path class="st6" d="M75.6,71.9L59.9,49.1l17.4-20.2h-4l-3.4,3.9L58.1,46.5L46.9,30.2L46,28.8H32.2l3.4,4.9l15,21.7L32.1,76.8h4
				L52.2,58l11.9,17.4l0.9,1.4H79L75.6,71.9z M66.8,73.6L54.3,55.5L52.6,53L38.1,32h6.2l11.7,17l1.7,2.6L73,73.6L66.8,73.6z"/>
		</g>
	</g>
</g>
</svg>
