<?xml version="1.0" encoding="utf-8"?>
<!-- Generator: Adobe Illustrator 25.0.0, SVG Export Plug-In . SVG Version: 6.00 Build 0)  -->
<svg version="1.1" id="Layer_1" xmlns="http://www.w3.org/2000/svg" xmlns:xlink="http://www.w3.org/1999/xlink" x="0px" y="0px"
	 viewBox="0 0 110 110" style="enable-background:new 0 0 110 110;" xml:space="preserve">
<style type="text/css">
	.st0{fill:url(#SVGID_1_);}
	.st1{opacity:0.3;fill:url(#SVGID_2_);enable-background:new    ;}
	.st2{fill:url(#SVGID_3_);}
	.st3{fill:url(#SVGID_4_);}
	.st4{opacity:5.000000e-02;fill:#1D1D1B;enable-background:new    ;}
	.st5{fill:url(#SVGID_5_);}
	.st6{fill:#FFFFFF;}
	.st7{opacity:0.3;}
</style>
<g>
	<g id="Layer_2_1_">
		<g id="OBJECTS">
			
				<linearGradient id="SVGID_1_" gradientUnits="userSpaceOnUse" x1="53.95" y1="901.7996" x2="53.95" y2="984.5" gradientTransform="matrix(1 0 0 1 0 -888)">
				<stop  offset="0" style="stop-color:#DD9B17"/>
				<stop  offset="2.000000e-02" style="stop-color:#E3A929"/>
				<stop  offset="6.000000e-02" style="stop-color:#EDBF48"/>
				<stop  offset="0.1" style="stop-color:#F5D160"/>
				<stop  offset="0.15" style="stop-color:#FBDD72"/>
				<stop  offset="0.19" style="stop-color:#FEE57C"/>
				<stop  offset="0.25" style="stop-color:#FFE77F"/>
				<stop  offset="0.36" style="stop-color:#FBDD72"/>
				<stop  offset="0.57" style="stop-color:#EFC34E"/>
				<stop  offset="0.84" style="stop-color:#DD9B17"/>
				<stop  offset="0.9" style="stop-color:#C58A14"/>
				<stop  offset="0.99" style="stop-color:#A6740F"/>
			</linearGradient>
			<path class="st0" d="M95.3,55.1c0,22.8-18.5,41.4-41.3,41.4S12.6,78,12.6,55.2S31,13.8,53.8,13.8c0,0,0,0,0.1,0
				C76.7,13.7,95.2,32.2,95.3,55.1C95.3,55,95.3,55,95.3,55.1z"/>
			
				<linearGradient id="SVGID_2_" gradientUnits="userSpaceOnUse" x1="59.2558" y1="928.3588" x2="37.8506" y2="986.4337" gradientTransform="matrix(1 0 0 1 0 -888)">
				<stop  offset="0" style="stop-color:#DD9B17"/>
				<stop  offset="2.000000e-02" style="stop-color:#E3A929"/>
				<stop  offset="6.000000e-02" style="stop-color:#EDBF48"/>
				<stop  offset="0.1" style="stop-color:#F5D160"/>
				<stop  offset="0.15" style="stop-color:#FBDD72"/>
				<stop  offset="0.19" style="stop-color:#FEE57C"/>
				<stop  offset="0.25" style="stop-color:#FFE77F"/>
				<stop  offset="0.36" style="stop-color:#FBDD72"/>
				<stop  offset="0.57" style="stop-color:#EFC34E"/>
				<stop  offset="0.84" style="stop-color:#DD9B17"/>
				<stop  offset="0.9" style="stop-color:#C58A14"/>
				<stop  offset="0.99" style="stop-color:#A6740F"/>
			</linearGradient>
			<path class="st1" d="M92.2,70.6C83.8,91.9,59.8,102.3,38.6,94C17.3,85.6,6.8,61.5,15.2,40.3c0.8-2.1,1.8-4,2.9-5.9
				C25.7,45.3,48.8,72.3,92.2,70.6z"/>
			
				<linearGradient id="SVGID_3_" gradientUnits="userSpaceOnUse" x1="53.85" y1="988.5896" x2="53.85" y2="896.3929" gradientTransform="matrix(1 0 0 1 0 -888)">
				<stop  offset="0" style="stop-color:#DD9B17"/>
				<stop  offset="2.000000e-02" style="stop-color:#E3A929"/>
				<stop  offset="6.000000e-02" style="stop-color:#EDBF48"/>
				<stop  offset="0.1" style="stop-color:#F5D160"/>
				<stop  offset="0.15" style="stop-color:#FBDD72"/>
				<stop  offset="0.19" style="stop-color:#FEE57C"/>
				<stop  offset="0.25" style="stop-color:#FFE77F"/>
				<stop  offset="0.36" style="stop-color:#FBDD72"/>
				<stop  offset="0.57" style="stop-color:#EFC34E"/>
				<stop  offset="0.84" style="stop-color:#DD9B17"/>
				<stop  offset="0.9" style="stop-color:#C58A14"/>
				<stop  offset="0.99" style="stop-color:#A6740F"/>
			</linearGradient>
			<path class="st2" d="M53.9,101.3c-25.5,0-46.2-20.7-46.3-46.2c0-25.5,20.7-46.2,46.2-46.3c25.5,0,46.2,20.7,46.3,46.2l0,0
				C100.1,80.6,79.4,101.3,53.9,101.3z M53.9,18.6c-20.1,0-36.4,16.3-36.5,36.4c0,20.1,16.3,36.4,36.4,36.5s36.4-16.3,36.5-36.4l0,0
				C90.3,35,74,18.7,53.9,18.6z"/>
			
				<linearGradient id="SVGID_4_" gradientUnits="userSpaceOnUse" x1="60.0865" y1="976.3628" x2="60.0865" y2="896.4582" gradientTransform="matrix(1 0 0 1 0 -888)">
				<stop  offset="0" style="stop-color:#FFFFFF;stop-opacity:0.6"/>
				<stop  offset="1" style="stop-color:#FFFFFF;stop-opacity:0"/>
			</linearGradient>
			<path class="st3" d="M53.9,8.8C41,8.8,28.7,14.2,20,23.7C38.5,6.1,67.7,6.8,85.3,25.3c17,17.8,17,45.8,0,63.7
				c18.8-17.3,19.9-46.5,2.6-65.3C79.2,14.2,66.8,8.8,53.9,8.8z"/>
			<path class="st4" d="M56.4,98.8c-25.5,0-46.2-20.6-46.2-46.2c0-11.7,4.4-22.9,12.4-31.5C4,38.7,3.3,68,20.9,86.4
				s46.8,19.2,65.3,1.7c0.6-0.5,1.1-1.1,1.7-1.7C79.3,94.4,68.1,98.8,56.4,98.8z"/>
			
				<radialGradient id="SVGID_5_" cx="67.7058" cy="929.1325" r="14.4233" gradientTransform="matrix(1 0 0 1 -5.795391e-03 -887.9981)" gradientUnits="userSpaceOnUse">
				<stop  offset="0" style="stop-color:#FFFFFF;stop-opacity:0.6"/>
				<stop  offset="1" style="stop-color:#FFFFFF;stop-opacity:0"/>
			</radialGradient>
			<path class="st5" d="M55.8,29.2c4.5-4.5,13.4-2.8,20,3.8c6.6,6.6,8.3,15.5,3.8,20s-13.4,2.8-20-3.8S51.3,33.7,55.8,29.2z"/>
			<path class="st6" d="M69.9,39.8h-32c-3.7,0-6.6,3-6.6,6.6v18.3c0,3.7,3,6.6,6.6,6.6h32c3.7,0,6.6-3,6.6-6.6V46.4
				C76.5,42.7,73.5,39.8,69.9,39.8z M49.2,61.5V48.7l12.3,6.4L49.2,61.5z"/>
			<g class="st7">
			</g>
		</g>
		<g>
			<g>
				
					<image style="overflow:visible;opacity:0.5;" width="70" height="55" xlink:href="3D16E439.png"  transform="matrix(1 0 0 1 20 30)">
				</image>
				<g>
					<path class="st6" d="M71.8,37.8c4.1,0,7.4,3.3,7.4,7.4v20.6c0,4.1-3.3,7.4-7.4,7.4H36c-4.1,0-7.4-3.3-7.4-7.4V45.3
						c0-4.1,3.3-7.4,7.4-7.4L71.8,37.8 M71.8,34.8H36c-5.8,0-10.5,4.7-10.5,10.5v20.6c0,5.8,4.7,10.5,10.5,10.5h35.9
						c5.8,0,10.5-4.7,10.5-10.5V45.3C82.3,39.5,77.6,34.8,71.8,34.8L71.8,34.8z"/>
				</g>
			</g>
		</g>
	</g>
</g>
</svg>
