<svg xmlns="http://www.w3.org/2000/svg" viewBox="0 0 381.57 390.55"><defs><style>.cls-1{fill:#1d1d1b;}</style></defs><g id="Layer_2" data-name="Layer 2"><g id="Layer_2-2" data-name="Layer 2"><path class="cls-1" d="M51.64,132.37,25.55,121.14l-3,7.14L49.83,140a8.75,8.75,0,0,1,3.85,2.79,3.48,3.48,0,0,1,.29,3.52l-.88,1.77,6.34,2.73c1-2.07,1.66-3.34,1.86-3.8a8.05,8.05,0,0,0-.71-8.21Q58,135.1,51.64,132.37Z"/><path class="cls-1" d="M99.13,46.55q-2.75-2.69-5.53-5.19l-5.07,4.46q3.31,3.56,5,5.49t4,4.84l4.91,6.21-3.37,2.71a4.54,4.54,0,0,1-1.52.81,5.05,5.05,0,0,1-1.5.29,21.45,21.45,0,0,0-2.81-4.48l-7.84-9.92-6,4.84,7.85,9.92a8,8,0,0,1,1.89,4.3,3.85,3.85,0,0,1-1.53,3.49L85.5,76,73.76,61.13l-6,4.85L79.49,80.83l-6.86,5.53.73.93-2,2.6a18.69,18.69,0,0,1-2.79,2.87,52.36,52.36,0,0,0-1.35-8.93,9.65,9.65,0,0,0-3.39-5.33L60,75.2a32.26,32.26,0,0,0-6.9,3.88,29.29,29.29,0,0,0-6.38,6,28.77,28.77,0,0,0-4.18,7.72,30.76,30.76,0,0,0-1.88,7.55l4.1,3a9.7,9.7,0,0,0,6,2,47.4,47.4,0,0,0,8.91-.91,18.87,18.87,0,0,1-2,3.39l-5,6.51.79.61L52,117.41,23,101.18,19.28,108l35.15,19.65,6.46-11.76-.43-.23L63.22,112a25.15,25.15,0,0,0,2.87-4.83A30.2,30.2,0,0,0,68,101.72a29.14,29.14,0,0,0,4.82-3.31,26.35,26.35,0,0,0,4.09-4.24l4.51-5.86L94,78.18a8.15,8.15,0,0,0,3.16-5.29,10,10,0,0,0,3.16-.61,10.56,10.56,0,0,0,3.24-1.8L112.8,63l-10-12.59A46.06,46.06,0,0,0,99.13,46.55ZM61.75,96.74a19.29,19.29,0,0,1-7.86,1.62,9.21,9.21,0,0,1-5.44-1.61,25.1,25.1,0,0,1,3.82-7.35,26.06,26.06,0,0,1,6.2-5.71,9.1,9.1,0,0,1,2.83,4.74A22.15,22.15,0,0,1,61.75,96.74Z"/><path class="cls-1" d="M102.5,24.68l-2.1,1.76,1.72,2.19L112.45,21l-2.21-2.85-5,4.21a3,3,0,0,1-2.35-1.77,2.93,2.93,0,0,1-.12-2.25,2.88,2.88,0,0,1,1.58-1.71,3.92,3.92,0,0,1,1.41-.38,4.13,4.13,0,0,1,1.12.08l-.79-3.47a8.49,8.49,0,0,0-4.64.67,5.81,5.81,0,0,0-3.19,3.43,5.68,5.68,0,0,0,.2,4.45A5.88,5.88,0,0,0,102.5,24.68Z"/><polygon class="cls-1" points="116.5 17.14 130.61 47.46 123.59 50.78 112.78 27.55 105.82 30.85 116.63 54.08 110.08 57.19 113.06 63.59 140.55 50.55 123.46 13.84 116.5 17.14"/><polygon class="cls-1" points="133.8 10.68 145.31 49.54 152.68 47.32 141.17 8.46 133.8 10.68"/><rect class="cls-1" x="206.15" y="0.29" width="7.53" height="7.06" transform="translate(202.65 213.65) rotate(-89.06)"/><path class="cls-1" d="M226.9,27.69a18.41,18.41,0,0,0-2.84-10.57c-2-3-5.36-4.58-10.18-4.65a15.49,15.49,0,0,0-6.5,1.16,17.07,17.07,0,0,0-5,3.23,55.25,55.25,0,0,0-4.77,5.19l.15-9.27-7.69-.13-.47,29.09a6.49,6.49,0,0,1-1.09,3.49,7.32,7.32,0,0,1-3.08,2.61,10.68,10.68,0,0,1-4.84.94,9.73,9.73,0,0,1-5.06-1.28,7.09,7.09,0,0,1-2.8-3A8,8,0,0,1,172,41q0-2.53,2.66-15.37l-7.34-.52c-.71,3.23-1.34,6.54-1.91,9.93a55.62,55.62,0,0,0-.9,7.29,14,14,0,0,0,1.29,5.87,12.1,12.1,0,0,0,4.94,5.3q3.6,2.27,9.86,2.36a20.9,20.9,0,0,0,9.36-1.67,13.09,13.09,0,0,0,5.53-4.48,10.46,10.46,0,0,0,1.84-5.63l0-2.31,29.33.48ZM219.09,35l-21.64-.35,0-2.66A32.45,32.45,0,0,1,204,23.23q3.93-3.8,8-3.73a6.25,6.25,0,0,1,5.38,2.84,11.45,11.45,0,0,1,1.82,6.73Z"/><path class="cls-1" d="M279.21,33A23,23,0,0,0,275,30.4,15.4,15.4,0,0,0,268.73,29,12.29,12.29,0,0,0,262,31a14.58,14.58,0,0,0-5.38,6.67A17.11,17.11,0,0,0,254.94,46l-7.36-3.39-.23.5-6.27-1.73,5.72-21.13-7.42-2L231.56,47.1a8.85,8.85,0,0,1-2.22,4.23,3.41,3.41,0,0,1-3.42.77l-1.85-.63-1.82,6.7c2.18.76,3.5,1.21,4,1.34a7.85,7.85,0,0,0,7.88-1.73q3.28-3,5.12-9.58l9,2.48,25,11.52,2.91-6.44L263,49.7a10.83,10.83,0,0,1-.61-3.88,11.19,11.19,0,0,1,1.1-4.61q1.69-3.75,4.27-4.47a6.94,6.94,0,0,1,5,.38,14.59,14.59,0,0,1,3.71,2.6,33.16,33.16,0,0,1,3.2,3.32l3.32-6.5A20.28,20.28,0,0,0,279.21,33Z"/><polygon class="cls-1" points="287.57 87.78 292.82 92.55 297.81 86.94 292.56 82.18 287.57 87.78"/><path class="cls-1" d="M360.7,117.51a17.17,17.17,0,0,0-5.1-3,53.92,53.92,0,0,0-6.76-1.9l18.54-9.23-3.4-7-29.76,14.81-2.13-4.37-1.28.63-1.58-2.14,26.65-20-4.59-6.23-26.64,20-2-2.67L324,95l-6.36-5.77,14.5-16.3-5.72-5.18L311.93,84,298.52,71.85q-6.33-5.73-2.41-10.13a52.54,52.54,0,0,1,4.26-3.92l2.72-2.45-4.38-4.44q-2.28,1.53-4.82,3.55a34.48,34.48,0,0,0-4.18,3.87c-2.12,2.39-3.17,4.69-3.13,6.9a10.76,10.76,0,0,0,2.14,6.23,41.53,41.53,0,0,0,5.8,6.27L315.71,97l-.9.67,12.39,16.84.57-.42,16.54,33.85,12.92-6.43a18.22,18.22,0,0,0,8-7.37q2.65-4.72-.54-11.27A16,16,0,0,0,360.7,117.51Zm-3.08,12.94a11.16,11.16,0,0,1-5.13,4.71l-5.3,2.64-9.57-19.59.46-.23q.93-.47,5.22-.27a28.58,28.58,0,0,1,8.49,1.72,9.92,9.92,0,0,1,5.87,5A6.33,6.33,0,0,1,357.62,130.45Z"/><path class="cls-1" d="M7.69,246.16q-.72-3.6.7-5.73a6.6,6.6,0,0,1,4.4-2.72,6,6,0,0,1,4.86.76,6.58,6.58,0,0,1,2.46,4.26,27.23,27.23,0,0,1,.42,4.11,29.48,29.48,0,0,1,0,4l6.71-1.33a24.11,24.11,0,0,0,.09-3.64,35.76,35.76,0,0,0-.47-4.62,10.48,10.48,0,0,1,6.66-4q4.14-.82,6.31.89a7.23,7.23,0,0,1,2.69,4.39,21.27,21.27,0,0,1-.3,7.55l7.36-1.1a25.58,25.58,0,0,0,.31-4.5,23.4,23.4,0,0,0-.39-4.06,16.11,16.11,0,0,0-2.67-6.06,12.77,12.77,0,0,0-5.71-4.45,15,15,0,0,0-8.81-.52,19.28,19.28,0,0,0-8.38,3.9q-3.91-5.09-12.15-3.45-6.52,1.31-9.6,5.53T.38,246a37.53,37.53,0,0,0,1.73,5.76c.81,2.17,1.67,4.18,2.56,6l5.91-2q-1-2.8-1.83-5.49C8.23,248.45,7.88,247.09,7.69,246.16Z"/><path class="cls-1" d="M29,286.43a52.49,52.49,0,0,0,8.77-2.64L60.26,275a61.26,61.26,0,0,0-1.41-6.39,62.14,62.14,0,0,0-2.26-6.94,18.91,18.91,0,0,0-4-6.57,8.94,8.94,0,0,0-6.25-2.32q-4-.12-10.6,2.47-13,5.07-8.44,16.49l2.52,6.39a16.21,16.21,0,0,1-4.45,1.2,3.89,3.89,0,0,1-2.68-.63A5.79,5.79,0,0,1,21,276.14a79.59,79.59,0,0,1-2.54-9.33l-6.69,2.63a75.26,75.26,0,0,0,2.73,10c1.35,3.41,3.39,5.58,6.11,6.48A15.9,15.9,0,0,0,29,286.43Zm5.92-20.94a9.26,9.26,0,0,1,4.25-3.07A16.28,16.28,0,0,1,44.94,261a4.79,4.79,0,0,1,3.34,1.18,9.58,9.58,0,0,1,2.1,3.44,31.88,31.88,0,0,1,1.31,4.14l-15,5.87-1.81-4.57C33.93,268.66,33.92,266.79,34.88,265.49Z"/><polygon class="cls-1" points="104.39 299.61 100.49 295.45 95.62 299.98 99.52 304.14 104.39 299.61"/><polygon class="cls-1" points="95.43 302.03 91.24 297.57 86.03 302.43 90.21 306.88 95.43 302.03"/><polygon class="cls-1" points="92.2 309 96.38 313.46 101.6 308.61 97.42 304.15 92.2 309"/><path class="cls-1" d="M150.64,339.41l-7.39-3L130.4,368.21l-6.79-2.73-.35.88-1.82-1.13a3.09,3.09,0,0,1-1.25-1.59,3.94,3.94,0,0,1-.12-2.27l2.68-4.27a26.36,26.36,0,0,0,3.55-7.85,9.13,9.13,0,0,0-1.11-6.63q-1.86-3.24-7.06-6.48a37.9,37.9,0,0,0-6.27-3.19,20,20,0,0,0-4.76-1.36,56.05,56.05,0,0,0-4.7,4.7,40.05,40.05,0,0,0-4.26,5.59,39.18,39.18,0,0,0-3.3,6.82L87,343.81l-.19.3-2.34-2.5,6.78-6.31a53.53,53.53,0,0,0,3.7-4.13c1.68-2,3.3-4.06,4.86-6.11l-5-4.86q-3.37,3.71-5.22,5.59c-1.24,1.26-2.78,2.75-4.64,4.48l-6,5.54-3-3.25a5.07,5.07,0,0,1-1-1.5,5.42,5.42,0,0,1-.41-1.52,22.37,22.37,0,0,0,4.36-3.25l9.52-8.86L83,311.63l-9.52,8.86a8.35,8.35,0,0,1-4.24,2.29,4,4,0,0,1-3.7-1.3l-1.87-2,14.25-13.27-5.44-5.8L58.25,313.68,52.91,308l1.08-.64L49,299,68.28,287.5l-4.07-6.82L37.78,296.35a8.93,8.93,0,0,1-4.66,1.52A3.53,3.53,0,0,1,30,296l-.93-1.79L23,297.84c1.08,2.11,1.75,3.39,2,3.83A8.23,8.23,0,0,0,32.08,306q4.59.13,10.65-3.38l5,8.39-1,.95,15.39,16.4a8.47,8.47,0,0,0,5.67,2.84,10.34,10.34,0,0,0,.88,3.19,11,11,0,0,0,2.1,3.19l11.78,12.56,1-1-.46.73,31.75,19.72,1.35-2.16a4.17,4.17,0,0,0,.13,2.25,3,3,0,0,0,1.24,1.61l2.78,1.72.55-.88,14.15,5.68Zm-34.56,13.33L112,359.33l-10.54-6.55a32.61,32.61,0,0,1,1.33-3.19,30.73,30.73,0,0,1,2-3.64,42.43,42.43,0,0,1,4.86-6.19,21.45,21.45,0,0,1,4.09,2q3.93,2.44,4.28,5C118.16,348.39,117.55,350.4,116.08,352.74Z"/><polygon class="cls-1" points="144.12 380.91 151.79 383.09 163.22 343.21 155.55 341.03 144.12 380.91"/><rect class="cls-1" x="191.77" y="347.2" width="7.41" height="6.13" transform="translate(-164.1 528.04) rotate(-87.14)"/><rect class="cls-1" x="182.74" y="346.75" width="7.41" height="6.13" transform="translate(-172.2 518.67) rotate(-87.15)"/><path class="cls-1" d="M251.11,359.94c-.84-2.49-1.71-4.94-2.63-7.33l-6.77,1.63c.91,3.2,1.58,5.66,2,7.36s.87,3.81,1.36,6.29l1.58,8-4.38.86a4.89,4.89,0,0,1-1.79,0,5.39,5.39,0,0,1-1.51-.46,22.34,22.34,0,0,0-.46-5.4L236,358.14l-7.82,1.53,2.51,12.73a8.09,8.09,0,0,1-.29,4.8,3.94,3.94,0,0,1-3.06,2.44l-2.69.53-3.77-19.07-7.82,1.53,3.77,19.07-7.48,1.47,0-.56-6.17-.31,1.11-22.19q-1.89-.39-6.51-.86t-7.95-.63a28.79,28.79,0,0,0-9.74.79,8.69,8.69,0,0,0-5.22,4.19c-1.13,2-1.8,5.08-2,9.06-.21,4.18.17,7.4,1.15,9.64a8.87,8.87,0,0,0,4.79,4.78,27.73,27.73,0,0,0,9.21,1.7l21,1.05,0-.61.26,1.33,22.12-4.34a8.42,8.42,0,0,0,5.41-3.3,10.65,10.65,0,0,0,3.19.95,11.27,11.27,0,0,0,3.84-.09l12-2.36-3.2-16.16A49.17,49.17,0,0,0,251.11,359.94Zm-55.89,22-6.41-.32a14.71,14.71,0,0,1-4.84-.89,4.6,4.6,0,0,1-2.52-2.53,11.7,11.7,0,0,1-.61-5.1,10.52,10.52,0,0,1,1.07-4.66,4.55,4.55,0,0,1,2.76-2.15,15.64,15.64,0,0,1,5.11-.4,62.13,62.13,0,0,1,6.22.61Z"/><polygon class="cls-1" points="247.81 338.99 263.41 377.44 270.8 374.46 255.2 336.01 247.81 338.99"/><path class="cls-1" d="M276.53,338.57l-7,3.73,14.45,27a8.86,8.86,0,0,1,1.3,4.71,3.52,3.52,0,0,1-2,3l-1.84.84,3.35,6.28c2.18-1,3.49-1.58,4-1.82a8.17,8.17,0,0,0,4.72-7q.3-4.65-3.05-10.93Z"/><path class="cls-1" d="M303.33,329.77a15.17,15.17,0,0,0-8.67-2.4,14.89,14.89,0,0,0-8.14,3,29.37,29.37,0,0,0-3.28,2.82c-1.13,1.11-2.1,2.14-2.93,3.08l4.15,4.68,4.86-3.52a9,9,0,0,1,7.57-1.42c2.86.63,5.82,3,8.85,7.18l1.26,1.72L291.56,356.1l4.27,5.85,21.89-15.87-6-8.19A29.53,29.53,0,0,0,303.33,329.77Z"/><polygon class="cls-1" points="346.68 322.32 352.89 326.91 357.25 321.05 351.03 316.47 346.68 322.32"/><path class="cls-1" d="M371.21,272.88l10.36-41.94-14.49-3.55a18.81,18.81,0,0,0-11.23.45c-3.49,1.28-5.82,4.34-7,9.17a16.11,16.11,0,0,0-.33,6.81,17.67,17.67,0,0,0,2.07,5.73,59.18,59.18,0,0,0,4.1,6l-20.79-5.1L332,258.14l33.39,8.18-.91,3.69-2.23,5.83L329.6,261l-3.32,7.22,32.89,14.55-3.21,7-4.56,6.14-18.07-13.33-4.75,6.38,18.07,13.33L335.54,317.2q-5.25,7.05-10.12,3.45a52.34,52.34,0,0,1-4.43-4l-2.76-2.56L314.12,319c1.18,1.47,2.55,3,4.09,4.61a35.18,35.18,0,0,0,4.37,3.92q4,2.93,7.36,2.55a11,11,0,0,0,6.15-2.79,42.71,42.71,0,0,0,5.84-6.57l20.57-27.66C366.74,286.24,369.82,279.5,371.21,272.88Zm-8.78-17.65a29.85,29.85,0,0,1-5.59-7,10.25,10.25,0,0,1-1.39-7.79,6.42,6.42,0,0,1,4.05-4.71,11.62,11.62,0,0,1,7.17-.29l5.95,1.46-5.36,21.69-.52-.12C366.05,258.31,364.61,257.23,362.43,255.23Z"/><path class="cls-1" d="M190.91,182.15a80.48,80.48,0,0,1,8.24,1.32v30.76a67.46,67.46,0,0,1-.94,11.6,20.06,20.06,0,0,1-4.46,9.59q-3.52,4.2-10.54,4.2a94.84,94.84,0,0,1-13.15-1.44V229a101,101,0,0,0,12.24,1.36,7.31,7.31,0,0,0,3.78-.83,5,5,0,0,0,2-2.87,20.36,20.36,0,0,0,.64-5.82H180q-15.65,0-15.65-17.69,0-9,2-13.67a11.27,11.27,0,0,1,5.66-6.31,24,24,0,0,1,9.64-1.63A80.69,80.69,0,0,1,190.91,182.15Zm-14.81,26.9q1.67,2.61,6.65,2.61H189V191.18a42.55,42.55,0,0,0-5.51-.38,12.21,12.21,0,0,0-5.06.87,6.05,6.05,0,0,0-2.95,3.4,20.34,20.34,0,0,0-1.06,7.52A11.77,11.77,0,0,0,176.1,209.05Z"/><path class="cls-1" d="M222.35,167.15,205.8,170.4l-.83-3.56,3.47-.9a7.72,7.72,0,0,1-2.94-6.12,7.38,7.38,0,0,1,2.23-5.37,7.64,7.64,0,0,1,5.7-2.27,11.19,11.19,0,0,1,5.9,1.82l-1,4.53a4.82,4.82,0,0,0-1.28-.71,4.9,4.9,0,0,0-1.89-.35,3.83,3.83,0,0,0-3.93,3.86,4,4,0,0,0,1.81,3.4l8.24-2.19ZM209,174.48H219.1v46.4H209Z"/></g></g></svg>