<svg xmlns="http://www.w3.org/2000/svg" viewBox="0 0 222.13 279.6"><defs><style>.cls-1{fill:#1d1d1b;}</style></defs><g id="Layer_2" data-name="Layer 2"><g id="Layer_5" data-name="Layer 5"><path class="cls-1" d="M36.66,56.08l-7.25-9.75,3.4-2.53A37.07,37.07,0,0,0,38,39.41a9.49,9.49,0,0,0,1.8-3.24,8.79,8.79,0,0,0,.3-4.18,10.55,10.55,0,0,0-2.11-4.65,10.08,10.08,0,0,0-5.24-3.92,8.53,8.53,0,0,0-5.61.24,38.17,38.17,0,0,0-6.49,4.23l-8.38,6.22L31.44,60ZM26.15,41.94l-5.46-7.33,2.52-1.88a32.51,32.51,0,0,1,3.89-2.62,4.54,4.54,0,0,1,2.95-.41,4.15,4.15,0,0,1,2.56,1.71,4.38,4.38,0,0,1,.91,2.45,4.3,4.3,0,0,1-.69,2.48A16.66,16.66,0,0,1,29,39.82Z"/><path class="cls-1" d="M58.35,42.21l-3.24-6.44a36.72,36.72,0,0,1-3-7.22,4.91,4.91,0,0,1,.1-2.94A3.44,3.44,0,0,1,53.81,24a5.44,5.44,0,0,1,3-.4l-.71-5.67A7.85,7.85,0,0,0,52,18.7a4.81,4.81,0,0,0-2,1.87,9.78,9.78,0,0,0-1,3.95l-1.49-3-5.12,2.58L52.84,45Z"/><rect class="cls-1" x="62.57" y="14.67" width="6.17" height="23.34" transform="translate(-5.06 24.56) rotate(-20.41)"/><rect class="cls-1" x="56.41" y="6.9" width="6.17" height="5.71" transform="translate(0.33 21.36) rotate(-20.41)"/><path class="cls-1" d="M76.92,31.8a10.7,10.7,0,0,0,8.67,1.38,11.17,11.17,0,0,0,6.55-3.64,10.71,10.71,0,0,0,2.18-6.94l-6.15.31a5.93,5.93,0,0,1-.8,3.7,4.19,4.19,0,0,1-2.59,1.6,4.6,4.6,0,0,1-4-.86Q79,26,78.12,21.92q-.81-3.65.19-5.5a4.6,4.6,0,0,1,3.24-2.35,4.19,4.19,0,0,1,3,.29,4.45,4.45,0,0,1,2,2.38l5.7-2.39a10.18,10.18,0,0,0-4.74-4.68,11.23,11.23,0,0,0-7-.32,10.82,10.82,0,0,0-7.37,4.93q-2.3,3.8-1,9.44T76.92,31.8Z"/><path class="cls-1" d="M97.08,27c2,2.58,5.09,3.8,9.15,3.65a11,11,0,0,0,6.34-2,10.1,10.1,0,0,0,3.55-5.28l-6.18-.81a4.93,4.93,0,0,1-1.4,2.6,3.83,3.83,0,0,1-2.41.88,4.67,4.67,0,0,1-3.61-1.4,6.24,6.24,0,0,1-1.65-4.22l15.46-.56q-.14-7.09-3.26-10.42a10.35,10.35,0,0,0-8.34-3.14,10,10,0,0,0-7.54,3.56q-2.91,3.39-2.7,9.19A13.32,13.32,0,0,0,97.08,27ZM102,12.57A4.3,4.3,0,0,1,105.28,11a4.25,4.25,0,0,1,3.25,1.27,6,6,0,0,1,1.53,4l-9.22.33A5.73,5.73,0,0,1,102,12.57Z"/><polygon class="cls-1" points="151.95 31.23 136.26 27.31 142.69 1.58 136.38 0 128.63 31 150.63 36.49 151.95 31.23"/><rect class="cls-1" x="163.13" y="8.6" width="5.71" height="6.17" transform="translate(91.81 160.64) rotate(-67.56)"/><rect class="cls-1" x="147.57" y="24.95" width="23.33" height="6.17" transform="translate(72.53 164.51) rotate(-67.56)"/><path class="cls-1" d="M168.44,25.4a6,6,0,0,0-.55,5.91q.95,2.28,6.28,7.7a4.82,4.82,0,0,1,1.28,1.81,1.65,1.65,0,0,1-.27,1.21,2,2,0,0,1-1.58.94,6.1,6.1,0,0,1-3.5-1.24,5.47,5.47,0,0,1-2.33-2.63,4.56,4.56,0,0,1,.17-3.17l-5.71-2.59a9,9,0,0,0-.51,3.21,8.36,8.36,0,0,0,.69,3.16,11,11,0,0,0,2,3,16.83,16.83,0,0,0,3.29,2.76c2.94,1.91,5.57,2.72,7.91,2.41a7,7,0,0,0,5.26-3.16,5.7,5.7,0,0,0,.89-4.9q-.75-2.43-4.27-6.07t-3.87-4.6a1.36,1.36,0,0,1,.1-1.28,1.48,1.48,0,0,1,1.27-.66,6.69,6.69,0,0,1,3.3,1.34,5.19,5.19,0,0,1,2.1,2.23,3.6,3.6,0,0,1,0,2.53l5.46,2.28c.13-.47.29-1,.48-1.58s.4-1.18.65-1.8.53-1.25.84-1.88a17.62,17.62,0,0,1,1-1.81A6.35,6.35,0,0,1,190.11,27a2.5,2.5,0,0,1,1.28-.56,2.83,2.83,0,0,1,1.37.21,9.12,9.12,0,0,1,1.54.83A7.63,7.63,0,0,1,195,28l.61.55.61.6-3,4.51-2.37-1.55-2.69,4.12,2.37,1.55L185,46.33a28.19,28.19,0,0,0-2.22,3.75,5.73,5.73,0,0,0-.59,2.48,4.48,4.48,0,0,0,.85,2.3A7.64,7.64,0,0,0,185.27,57a12.5,12.5,0,0,0,4.59,1.9l2.17-4.3a8.34,8.34,0,0,1-2.4-.86,1.73,1.73,0,0,1-.7-.83,1.36,1.36,0,0,1-.05-1,7.69,7.69,0,0,1,.52-.94c.28-.47.68-1.11,1.21-1.92l5.15-7.87,3.53,2.31L202,39.39l-3.53-2.31,4.27-6.53a25.36,25.36,0,0,0-1.66-2.05c-.55-.61-1.21-1.26-2-2a21.66,21.66,0,0,0-2.73-2.09,13.52,13.52,0,0,0-3.13-1.54,7.55,7.55,0,0,0-3-.41,5.83,5.83,0,0,0-2.63.85,7.05,7.05,0,0,0-2.17,2.21,10.35,10.35,0,0,0-.74,1.3,8.87,8.87,0,0,0-.42,1.07,16.14,16.14,0,0,0-1.61-1.57,19.64,19.64,0,0,0-2.11-1.58q-4.22-2.74-7.35-2.33A6.5,6.5,0,0,0,168.44,25.4Z"/><path class="cls-1" d="M26.35,230.6a8.84,8.84,0,0,0,4.19,0A10.6,10.6,0,0,0,35,228.17a10,10,0,0,0,3.54-5.5,8.52,8.52,0,0,0-.63-5.57,37.59,37.59,0,0,0-4.68-6.18L26.46,203,2,224l4.24,4.93L15.48,221l2.77,3.21A37.4,37.4,0,0,0,23,229,9.65,9.65,0,0,0,26.35,230.6Zm-6.72-13.16,6.94-6,2,2.39a31.62,31.62,0,0,1,2.89,3.69,4.5,4.5,0,0,1,.62,2.91,4.19,4.19,0,0,1-1.53,2.68,4.27,4.27,0,0,1-2.38,1.07,4.2,4.2,0,0,1-2.52-.51A16.72,16.72,0,0,1,22,220.14Z"/><path class="cls-1" d="M41.73,238.07a5.33,5.33,0,0,1,1.62,2.61l4.88-3a7.88,7.88,0,0,0-2.42-3.47,4.86,4.86,0,0,0-2.54-1.1,9.85,9.85,0,0,0-4,.73l2.09-2.58-4.45-3.61-14.72,18.1L27,249.67l4.54-5.59a37,37,0,0,1,5.34-5.74,4.86,4.86,0,0,1,2.73-1.11A3.39,3.39,0,0,1,41.73,238.07Z"/><path class="cls-1" d="M61.58,257.83a11.87,11.87,0,0,0,1.32-9.23A11.7,11.7,0,0,0,57,241.34a12.77,12.77,0,0,0-6.15-1.73A10.39,10.39,0,0,0,45,241.33a12.66,12.66,0,0,0-4.24,4.44,14.17,14.17,0,0,0-2,6.69,9.92,9.92,0,0,0,1.77,5.88,13.55,13.55,0,0,0,4.61,4.27,11.61,11.61,0,0,0,9.21,1.19A12,12,0,0,0,61.58,257.83ZM52,258.6a5.4,5.4,0,0,1-7.07-4,7.73,7.73,0,0,1,1.18-5.44,7.75,7.75,0,0,1,4.05-3.83,5.39,5.39,0,0,1,7.07,4,7.7,7.7,0,0,1-1.17,5.4A7.85,7.85,0,0,1,52,258.6Z"/><path class="cls-1" d="M68.65,247.62l-7.88,20.82a15.51,15.51,0,0,1-1.4,3.13,1.94,1.94,0,0,1-1.1.63,2.74,2.74,0,0,1-1.59-.16,5.36,5.36,0,0,1-.65-.31l-.72-.42-2.87,4.55a22.94,22.94,0,0,0,2,1.27,13.2,13.2,0,0,0,1.8.86,7.88,7.88,0,0,0,4.32.53,5.1,5.1,0,0,0,3.12-1.89A23.46,23.46,0,0,0,66.42,271l8-21.14Z"/><rect class="cls-1" x="70.81" y="240" width="5.71" height="6.17" transform="translate(-179.75 225.94) rotate(-69.27)"/><path class="cls-1" d="M86.13,252.56a10,10,0,0,0-8.2,1.54q-3.68,2.55-4.94,8.21a13.37,13.37,0,0,0,.51,8.35q2,4.51,7.93,5.84a11,11,0,0,0,6.63-.33A10.08,10.08,0,0,0,92.84,272l-5.78-2.35a5,5,0,0,1-2,2.16,3.81,3.81,0,0,1-2.56.24,4.66,4.66,0,0,1-3.14-2.26,6.27,6.27,0,0,1-.53-4.5l15.1,3.37q1.68-6.9-.52-10.91A10.35,10.35,0,0,0,86.13,252.56Zm2.63,11-9-2A5.63,5.63,0,0,1,81.89,258a4.25,4.25,0,0,1,3.58-.71,4.21,4.21,0,0,1,2.82,2.06A6,6,0,0,1,88.76,263.6Z"/><path class="cls-1" d="M110,273.66a4.17,4.17,0,0,1-2.91.91,4.57,4.57,0,0,1-3.69-1.83c-.9-1.17-1.3-3.14-1.22-5.91.08-2.48.59-4.25,1.54-5.28a4.65,4.65,0,0,1,3.73-1.48,4.27,4.27,0,0,1,2.79,1,4.42,4.42,0,0,1,1.31,2.79l6.12-.91a10.16,10.16,0,0,0-3.44-5.7,11.26,11.26,0,0,0-6.72-2,10.85,10.85,0,0,0-8.36,3q-3.15,3.12-3.33,8.9c-.11,3.8.81,6.82,2.77,9a10.65,10.65,0,0,0,8.06,3.48,11.19,11.19,0,0,0,7.24-1.91,10.72,10.72,0,0,0,3.82-6.19l-6-1.22A6,6,0,0,1,110,273.66Z"/><path class="cls-1" d="M129.44,273.16a1.74,1.74,0,0,1-1.07-.19,1.34,1.34,0,0,1-.64-.71,25.8,25.8,0,0,1-.51-3.29l-1.11-9.34,4.19-.49-.58-4.89-4.19.5-1-8.19-5.73,4.31.55,4.61-2.82.33.59,4.89,2.81-.34,1.2,10.11a29.48,29.48,0,0,0,.71,4.29,5.77,5.77,0,0,0,1.14,2.29,4.48,4.48,0,0,0,2.13,1.21,7.85,7.85,0,0,0,3,.2,12.23,12.23,0,0,0,4.74-1.49l-1.09-4.7A8.14,8.14,0,0,1,129.44,273.16Z"/><polygon class="cls-1" points="162 239.23 167.3 236.06 164.37 231.16 159.07 234.33 159.45 234.96 155.31 236.63 156.92 261.69 140.43 242.64 133.89 245.28 156.63 270.84 163.07 268.24 161.91 239.08 162 239.23"/><rect class="cls-1" x="169.17" y="238.71" width="6.17" height="23.33" transform="translate(-104.02 123.76) rotate(-30.85)"/><path class="cls-1" d="M192.17,241.28a4.93,4.93,0,0,1,.44,2.92,3.81,3.81,0,0,1-1.4,2.15,4.71,4.71,0,0,1-3.73,1.05,6.29,6.29,0,0,1-3.85-2.39l12-9.72c-2.91-3.74-5.86-5.86-8.86-6.39a10.38,10.38,0,0,0-8.56,2.49,10,10,0,0,0-3.9,7.38q-.3,4.46,3.35,9a13.42,13.42,0,0,0,6.85,4.81q4.77,1.24,9.51-2.57a11,11,0,0,0,3.87-5.4,10,10,0,0,0-.33-6.36Zm-12.33-3.2a4.45,4.45,0,0,1,5-4.18,6,6,0,0,1,3.64,2.3l-7.18,5.8A5.67,5.67,0,0,1,179.84,238.08Z"/><polygon class="cls-1" points="203.28 205.02 212.54 217.98 198.12 211.58 194.44 216.26 203.98 228.88 189.25 222.86 185.54 227.58 208.45 236.2 212.16 231.48 202.81 219.1 217.09 225.21 220.75 220.55 207.04 200.23 203.28 205.02"/><path class="cls-1" d="M8.38,136.18h1.7a13.84,13.84,0,0,1,4.22.47,6.39,6.39,0,0,1,2.52,1.73,59.83,59.83,0,0,1,4.42,6.1l6.06,9h10l-5.07-8.1a47.45,47.45,0,0,0-4.77-6.74A19.83,19.83,0,0,0,23,135.19q5.46-.8,8.21-3.84A11.07,11.07,0,0,0,34,123.64a11.91,11.91,0,0,0-1.81-6.54,9.56,9.56,0,0,0-4.83-4q-3-1.12-9.67-1.12H0v41.51H8.38Zm0-17.16h6.54q5.1,0,6.12.14a5.16,5.16,0,0,1,3.16,1.63,5,5,0,0,1,1.11,3.39,5.37,5.37,0,0,1-.85,3.11,4.5,4.5,0,0,1-2.35,1.76q-1.5.51-7.53.51H8.38Z"/><path class="cls-1" d="M63.85,127.19q-3.89-4.43-10.59-4.43A12.87,12.87,0,0,0,43.38,127q-3.91,4.24-3.91,11.71a17.26,17.26,0,0,0,3,10.37q3.77,5.12,11.61,5.12a14.19,14.19,0,0,0,8.26-2.28,13,13,0,0,0,4.83-6.64l-7.93-1.33a6.32,6.32,0,0,1-1.93,3.28,4.87,4.87,0,0,1-3.14,1,6,6,0,0,1-4.59-2,8,8,0,0,1-1.92-5.51H67.56Q67.72,131.62,63.85,127.19ZM47.77,135.9a7.33,7.33,0,0,1,1.67-5.15,5.74,5.74,0,0,1,8.44-.1,7.69,7.69,0,0,1,1.78,5.25Z"/><path class="cls-1" d="M101.65,165V123.44H94.32v4.45A11.77,11.77,0,0,0,90.43,124a10.2,10.2,0,0,0-5.2-1.28,11.77,11.77,0,0,0-9.1,4.06q-3.67,4.06-3.67,11.32,0,7.7,3.91,12.2a10.61,10.61,0,0,0,8.43,3.85,11,11,0,0,0,5-1.17,11.47,11.47,0,0,0,3.88-3.19V165Zm-9.77-19.51a6.13,6.13,0,0,1-4.81,2.46,5.85,5.85,0,0,1-4.62-2.19c-1.24-1.46-1.86-3.85-1.86-7.15s.64-5.75,1.93-7.28A6.09,6.09,0,0,1,87.35,129a5.91,5.91,0,0,1,4.72,2.25q1.88,2.25,1.88,6.87C94,141.35,93.26,143.8,91.88,145.44Z"/><path class="cls-1" d="M109.3,123.44v19a16.61,16.61,0,0,0,1.07,6.65,7.88,7.88,0,0,0,3.48,3.74,11,11,0,0,0,5.44,1.33,12,12,0,0,0,5.65-1.39,11.65,11.65,0,0,0,4.32-3.79v4.5h7.39V123.44h-8v12.68c0,4.31-.2,7-.59,8.12a5.67,5.67,0,0,1-2.21,2.77,6.23,6.23,0,0,1-3.65,1.12,5,5,0,0,1-2.95-.83,4.28,4.28,0,0,1-1.6-2.27q-.43-1.42-.44-7.77V123.44Z"/><path class="cls-1" d="M167,127.19q-3.88-4.43-10.59-4.43a12.89,12.89,0,0,0-9.89,4.23q-3.9,4.24-3.9,11.71a17.26,17.26,0,0,0,3,10.37q3.77,5.12,11.61,5.12a14.18,14.18,0,0,0,8.25-2.28,13,13,0,0,0,4.83-6.64l-7.93-1.33a6.25,6.25,0,0,1-1.92,3.28,4.88,4.88,0,0,1-3.15,1,6,6,0,0,1-4.58-2,8.08,8.08,0,0,1-1.93-5.51h19.93Q170.83,131.62,167,127.19Zm-16.09,8.71a7.33,7.33,0,0,1,1.67-5.15,5.53,5.53,0,0,1,4.31-1.9,5.46,5.46,0,0,1,4.13,1.8,7.69,7.69,0,0,1,1.79,5.25Z"/><path class="cls-1" d="M196.93,113.47a7.52,7.52,0,0,0-2.24,2.78,9.15,9.15,0,0,0-.79,3.91,12.69,12.69,0,0,0,.13,1.92,8.87,8.87,0,0,0,.3,1.45,22.14,22.14,0,0,0-2.85-.56,25.54,25.54,0,0,0-3.38-.21q-6.49,0-9.57,2.66a8.35,8.35,0,0,0-3.09,6.57,7.71,7.71,0,0,0,3.57,6.77q2.63,1.78,12.2,3.88a6.18,6.18,0,0,1,2.66,1.05,2.13,2.13,0,0,1,.57,1.5,2.53,2.53,0,0,1-1.05,2.12,7.82,7.82,0,0,1-4.64,1.13,7,7,0,0,1-4.38-1.2,5.92,5.92,0,0,1-2.05-3.53l-8,1.22a11.72,11.72,0,0,0,1.71,3.84,10.84,10.84,0,0,0,3,2.91,13.8,13.8,0,0,0,4.24,1.86,21.42,21.42,0,0,0,5.49.65q6.76,0,10.22-3a9.08,9.08,0,0,0,3.45-7.11,7.37,7.37,0,0,0-2.49-5.92q-2.52-2.08-8.89-3.54c-4.26-1-6.74-1.72-7.42-2.23a1.79,1.79,0,0,1-.79-1.45,1.91,1.91,0,0,1,.91-1.61,8.46,8.46,0,0,1,4.5-.88,6.81,6.81,0,0,1,3.84.92,4.61,4.61,0,0,1,1.82,2.7l7.51-1.38q-.28-.91-.6-2c-.21-.76-.4-1.56-.57-2.41s-.31-1.72-.42-2.62a21.88,21.88,0,0,1-.17-2.67,7.81,7.81,0,0,1,.33-2.49,3.2,3.2,0,0,1,1-1.51,3.76,3.76,0,0,1,1.63-.73,11.54,11.54,0,0,1,2.25-.2,8.48,8.48,0,0,1,1.11.07c.37,0,.72.1,1,.16l1.08.22v6.94h-3.65v6.34h3.65v13.11a38.83,38.83,0,0,0,.25,5.61,7.56,7.56,0,0,0,1.12,3.1,5.76,5.76,0,0,0,2.54,1.88,10,10,0,0,0,3.88.71,15.84,15.84,0,0,0,6.28-1.19l-.68-6.17a10.19,10.19,0,0,1-3.2.76,2.26,2.26,0,0,1-1.34-.39,1.83,1.83,0,0,1-.72-1,10.56,10.56,0,0,1-.1-1.38c0-.71-.05-1.68-.05-2.93V129.78h5.44v-6.34H216v-10a33,33,0,0,0-3.22-1q-1.53-.39-3.54-.72a27.43,27.43,0,0,0-4.42-.33,17.31,17.31,0,0,0-4.46.54A9.88,9.88,0,0,0,196.93,113.47Z"/></g></g></svg>