<svg xmlns="http://www.w3.org/2000/svg" viewBox="0 0 1921.7 1267.7"><defs><style>.cls-1{fill:none;stroke:#19242b;stroke-linecap:round;stroke-miterlimit:10;stroke-width:1.7px;}</style></defs><g id="Layer_2" data-name="Layer 2"><g id="Layer_1-2" data-name="Layer 1"><path class="cls-1" d="M.85,1236.85c87.27,0,87.27,30,174.54,30s87.28-30,174.55-30,87.27,30,174.54,30,87.27-30,174.55-30,87.27,30,174.54,30,87.27-30,174.54-30,87.27,30,174.55,30,87.27-30,174.54-30,87.27,30,174.55,30,87.27-30,174.55-30,87.27,30,174.55,30"/><path class="cls-1" d="M.85,1224.85c87.27,0,87.27,30,174.54,30s87.28-30,174.55-30,87.27,30,174.54,30,87.27-30,174.55-30,87.27,30,174.54,30,87.27-30,174.54-30,87.27,30,174.55,30,87.27-30,174.54-30,87.27,30,174.55,30,87.27-30,174.55-30,87.27,30,174.55,30"/><path class="cls-1" d="M.85,1212.85c87.27,0,87.27,30,174.54,30s87.28-30,174.55-30,87.27,30,174.54,30,87.27-30,174.55-30,87.27,30,174.54,30,87.27-30,174.54-30,87.27,30,174.55,30,87.27-30,174.54-30,87.27,30,174.55,30,87.27-30,174.55-30,87.27,30,174.55,30"/><path class="cls-1" d="M.85,1200.85c87.27,0,87.27,30,174.54,30s87.28-30,174.55-30,87.27,30,174.54,30,87.27-30,174.55-30,87.27,30,174.54,30,87.27-30,174.54-30,87.27,30,174.55,30,87.27-30,174.54-30,87.27,30,174.55,30,87.27-30,174.55-30,87.27,30,174.55,30"/><path class="cls-1" d="M.85,1188.85c87.27,0,87.27,30,174.54,30s87.28-30,174.55-30,87.27,30,174.54,30,87.27-30,174.55-30,87.27,30,174.54,30,87.27-30,174.54-30,87.27,30,174.55,30,87.27-30,174.54-30,87.27,30,174.55,30,87.27-30,174.55-30,87.27,30,174.55,30"/><path class="cls-1" d="M.85,1176.85c87.27,0,87.27,30,174.54,30s87.28-30,174.55-30,87.27,30,174.54,30,87.27-30,174.55-30,87.27,30,174.54,30,87.27-30,174.54-30,87.27,30,174.55,30,87.27-30,174.54-30,87.27,30,174.55,30,87.27-30,174.55-30,87.27,30,174.55,30"/><path class="cls-1" d="M.85,1164.85c87.27,0,87.27,30,174.54,30s87.28-30,174.55-30,87.27,30,174.54,30,87.27-30,174.55-30,87.27,30,174.54,30,87.27-30,174.54-30,87.27,30,174.55,30,87.27-30,174.54-30,87.27,30,174.55,30,87.27-30,174.55-30,87.27,30,174.55,30"/><path class="cls-1" d="M.85,1152.85c87.27,0,87.27,30,174.54,30s87.28-30,174.55-30,87.27,30,174.54,30,87.27-30,174.55-30,87.27,30,174.54,30,87.27-30,174.54-30,87.27,30,174.55,30,87.27-30,174.54-30,87.27,30,174.55,30,87.27-30,174.55-30,87.27,30,174.55,30"/><path class="cls-1" d="M.85,1140.85c87.27,0,87.27,30,174.54,30s87.28-30,174.55-30,87.27,30,174.54,30,87.27-30,174.55-30,87.27,30,174.54,30,87.27-30,174.54-30,87.27,30,174.55,30,87.27-30,174.54-30,87.27,30,174.55,30,87.27-30,174.55-30,87.27,30,174.55,30"/><path class="cls-1" d="M.85,1128.85c87.27,0,87.27,30,174.54,30s87.28-30,174.55-30,87.27,30,174.54,30,87.27-30,174.55-30,87.27,30,174.54,30,87.27-30,174.54-30,87.27,30,174.55,30,87.27-30,174.54-30,87.27,30,174.55,30,87.27-30,174.55-30,87.27,30,174.55,30"/><path class="cls-1" d="M.85,1116.85c87.27,0,87.27,30,174.54,30s87.28-30,174.55-30,87.27,30,174.54,30,87.27-30,174.55-30,87.27,30,174.54,30,87.27-30,174.54-30,87.27,30,174.55,30,87.27-30,174.54-30,87.27,30,174.55,30,87.27-30,174.55-30,87.27,30,174.55,30"/><path class="cls-1" d="M.85,1104.85c87.27,0,87.27,30,174.54,30s87.28-30,174.55-30,87.27,30,174.54,30,87.27-30,174.55-30,87.27,30,174.54,30,87.27-30,174.54-30,87.27,30,174.55,30,87.27-30,174.54-30,87.27,30,174.55,30,87.27-30,174.55-30,87.27,30,174.55,30"/><path class="cls-1" d="M.85,1092.85c87.27,0,87.27,30,174.54,30s87.28-30,174.55-30,87.27,30,174.54,30,87.27-30,174.55-30,87.27,30,174.54,30,87.27-30,174.54-30,87.27,30,174.55,30,87.27-30,174.54-30,87.27,30,174.55,30,87.27-30,174.55-30,87.27,30,174.55,30"/><path class="cls-1" d="M.85,1080.85c87.27,0,87.27,30,174.54,30s87.28-30,174.55-30,87.27,30,174.54,30,87.27-30,174.55-30,87.27,30,174.54,30,87.27-30,174.54-30,87.27,30,174.55,30,87.27-30,174.54-30,87.27,30,174.55,30,87.27-30,174.55-30,87.27,30,174.55,30"/><path class="cls-1" d="M.85,1068.85c87.27,0,87.27,30,174.54,30s87.28-30,174.55-30,87.27,30,174.54,30,87.27-30,174.55-30,87.27,30,174.54,30,87.27-30,174.54-30,87.27,30,174.55,30,87.27-30,174.54-30,87.27,30,174.55,30,87.27-30,174.55-30,87.27,30,174.55,30"/><path class="cls-1" d="M.85,1056.85c87.27,0,87.27,30,174.54,30s87.28-30,174.55-30,87.27,30,174.54,30,87.27-30,174.55-30,87.27,30,174.54,30,87.27-30,174.54-30,87.27,30,174.55,30,87.27-30,174.54-30,87.27,30,174.55,30,87.27-30,174.55-30,87.27,30,174.55,30"/><path class="cls-1" d="M.85,1044.85c87.27,0,87.27,30,174.54,30s87.28-30,174.55-30,87.27,30,174.54,30,87.27-30,174.55-30,87.27,30,174.54,30,87.27-30,174.54-30,87.27,30,174.55,30,87.27-30,174.54-30,87.27,30,174.55,30,87.27-30,174.55-30,87.27,30,174.55,30"/><path class="cls-1" d="M.85,1032.85c87.27,0,87.27,30,174.54,30s87.28-30,174.55-30,87.27,30,174.54,30,87.27-30,174.55-30,87.27,30,174.54,30,87.27-30,174.54-30,87.27,30,174.55,30,87.27-30,174.54-30,87.27,30,174.55,30,87.27-30,174.55-30,87.27,30,174.55,30"/><path class="cls-1" d="M.85,1020.85c87.27,0,87.27,30,174.54,30s87.28-30,174.55-30,87.27,30,174.54,30,87.27-30,174.55-30,87.27,30,174.54,30,87.27-30,174.54-30,87.27,30,174.55,30,87.27-30,174.54-30,87.27,30,174.55,30,87.27-30,174.55-30,87.27,30,174.55,30"/><path class="cls-1" d="M.85,1008.85c87.27,0,87.27,30,174.54,30s87.28-30,174.55-30,87.27,30,174.54,30,87.27-30,174.55-30,87.27,30,174.54,30,87.27-30,174.54-30,87.27,30,174.55,30,87.27-30,174.54-30,87.27,30,174.55,30,87.27-30,174.55-30,87.27,30,174.55,30"/><path class="cls-1" d="M.85,996.85c87.27,0,87.27,30,174.54,30s87.28-30,174.55-30,87.27,30,174.54,30,87.27-30,174.55-30,87.27,30,174.54,30,87.27-30,174.54-30,87.27,30,174.55,30,87.27-30,174.54-30,87.27,30,174.55,30,87.27-30,174.55-30,87.27,30,174.55,30"/><path class="cls-1" d="M.85,984.85c87.27,0,87.27,30,174.54,30s87.28-30,174.55-30,87.27,30,174.54,30,87.27-30,174.55-30,87.27,30,174.54,30,87.27-30,174.54-30,87.27,30,174.55,30,87.27-30,174.54-30,87.27,30,174.55,30,87.27-30,174.55-30,87.27,30,174.55,30"/><path class="cls-1" d="M.85,972.85c87.27,0,87.27,30,174.54,30s87.28-30,174.55-30,87.27,30,174.54,30,87.27-30,174.55-30,87.27,30,174.54,30,87.27-30,174.54-30,87.27,30,174.55,30,87.27-30,174.54-30,87.27,30,174.55,30,87.27-30,174.55-30,87.27,30,174.55,30"/><path class="cls-1" d="M.85,960.85c87.27,0,87.27,30,174.54,30s87.28-30,174.55-30,87.27,30,174.54,30,87.27-30,174.55-30,87.27,30,174.54,30,87.27-30,174.54-30,87.27,30,174.55,30,87.27-30,174.54-30,87.27,30,174.55,30,87.27-30,174.55-30,87.27,30,174.55,30"/><path class="cls-1" d="M.85,948.85c87.27,0,87.27,30,174.54,30s87.28-30,174.55-30,87.27,30,174.54,30,87.27-30,174.55-30,87.27,30,174.54,30,87.27-30,174.54-30,87.27,30,174.55,30,87.27-30,174.54-30,87.27,30,174.55,30,87.27-30,174.55-30,87.27,30,174.55,30"/><path class="cls-1" d="M.85,936.85c87.27,0,87.27,30,174.54,30s87.28-30,174.55-30,87.27,30,174.54,30,87.27-30,174.55-30,87.27,30,174.54,30,87.27-30,174.54-30,87.27,30,174.55,30,87.27-30,174.54-30,87.27,30,174.55,30,87.27-30,174.55-30,87.27,30,174.55,30"/><path class="cls-1" d="M.85,924.85c87.27,0,87.27,30,174.54,30s87.28-30,174.55-30,87.27,30,174.54,30,87.27-30,174.55-30,87.27,30,174.54,30,87.27-30,174.54-30,87.27,30,174.55,30,87.27-30,174.54-30,87.27,30,174.55,30,87.27-30,174.55-30,87.27,30,174.55,30"/><path class="cls-1" d="M.85,912.85c87.27,0,87.27,30,174.54,30s87.28-30,174.55-30,87.27,30,174.54,30,87.27-30,174.55-30,87.27,30,174.54,30,87.27-30,174.54-30,87.27,30,174.55,30,87.27-30,174.54-30,87.27,30,174.55,30,87.27-30,174.55-30,87.27,30,174.55,30"/><path class="cls-1" d="M.85,900.85c87.27,0,87.27,30,174.54,30s87.28-30,174.55-30,87.27,30,174.54,30,87.27-30,174.55-30,87.27,30,174.54,30,87.27-30,174.54-30,87.27,30,174.55,30,87.27-30,174.54-30,87.27,30,174.55,30,87.27-30,174.55-30,87.27,30,174.55,30"/><path class="cls-1" d="M.85,888.85c87.27,0,87.27,30,174.54,30s87.28-30,174.55-30,87.27,30,174.54,30,87.27-30,174.55-30,87.27,30,174.54,30,87.27-30,174.54-30,87.27,30,174.55,30,87.27-30,174.54-30,87.27,30,174.55,30,87.27-30,174.55-30,87.27,30,174.55,30"/><path class="cls-1" d="M.85,876.85c87.27,0,87.27,30,174.54,30s87.28-30,174.55-30,87.27,30,174.54,30,87.27-30,174.55-30,87.27,30,174.54,30,87.27-30,174.54-30,87.27,30,174.55,30,87.27-30,174.54-30,87.27,30,174.55,30,87.27-30,174.55-30,87.27,30,174.55,30"/><path class="cls-1" d="M.85,864.85c87.27,0,87.27,30,174.54,30s87.28-30,174.55-30,87.27,30,174.54,30,87.27-30,174.55-30,87.27,30,174.54,30,87.27-30,174.54-30,87.27,30,174.55,30,87.27-30,174.54-30,87.27,30,174.55,30,87.27-30,174.55-30,87.27,30,174.55,30"/><path class="cls-1" d="M.85,852.85c87.27,0,87.27,30,174.54,30s87.28-30,174.55-30,87.27,30,174.54,30,87.27-30,174.55-30,87.27,30,174.54,30,87.27-30,174.54-30,87.27,30,174.55,30,87.27-30,174.54-30,87.27,30,174.55,30,87.27-30,174.55-30,87.27,30,174.55,30"/><path class="cls-1" d="M.85,840.85c87.27,0,87.27,30,174.54,30s87.28-30,174.55-30,87.27,30,174.54,30,87.27-30,174.55-30,87.27,30,174.54,30,87.27-30,174.54-30,87.27,30,174.55,30,87.27-30,174.54-30,87.27,30,174.55,30,87.27-30,174.55-30,87.27,30,174.55,30"/><path class="cls-1" d="M.85,828.85c87.27,0,87.27,30,174.54,30s87.28-30,174.55-30,87.27,30,174.54,30,87.27-30,174.55-30,87.27,30,174.54,30,87.27-30,174.54-30,87.27,30,174.55,30,87.27-30,174.54-30,87.27,30,174.55,30,87.27-30,174.55-30,87.27,30,174.55,30"/><path class="cls-1" d="M.85,816.85c87.27,0,87.27,30,174.54,30s87.28-30,174.55-30,87.27,30,174.54,30,87.27-30,174.55-30,87.27,30,174.54,30,87.27-30,174.54-30,87.27,30,174.55,30,87.27-30,174.54-30,87.27,30,174.55,30,87.27-30,174.55-30,87.27,30,174.55,30"/><path class="cls-1" d="M.85,804.85c87.27,0,87.27,30,174.54,30s87.28-30,174.55-30,87.27,30,174.54,30,87.27-30,174.55-30,87.27,30,174.54,30,87.27-30,174.54-30,87.27,30,174.55,30,87.27-30,174.54-30,87.27,30,174.55,30,87.27-30,174.55-30,87.27,30,174.55,30"/><path class="cls-1" d="M.85,792.85c87.27,0,87.27,30,174.54,30s87.28-30,174.55-30,87.27,30,174.54,30,87.27-30,174.55-30,87.27,30,174.54,30,87.27-30,174.54-30,87.27,30,174.55,30,87.27-30,174.54-30,87.27,30,174.55,30,87.27-30,174.55-30,87.27,30,174.55,30"/><path class="cls-1" d="M.85,780.85c87.27,0,87.27,30,174.54,30s87.28-30,174.55-30,87.27,30,174.54,30,87.27-30,174.55-30,87.27,30,174.54,30,87.27-30,174.54-30,87.27,30,174.55,30,87.27-30,174.54-30,87.27,30,174.55,30,87.27-30,174.55-30,87.27,30,174.55,30"/><path class="cls-1" d="M.85,768.85c87.27,0,87.27,30,174.54,30s87.28-30,174.55-30,87.27,30,174.54,30,87.27-30,174.55-30,87.27,30,174.54,30,87.27-30,174.54-30,87.27,30,174.55,30,87.27-30,174.54-30,87.27,30,174.55,30,87.27-30,174.55-30,87.27,30,174.55,30"/><path class="cls-1" d="M.85,756.85c87.27,0,87.27,30,174.54,30s87.28-30,174.55-30,87.27,30,174.54,30,87.27-30,174.55-30,87.27,30,174.54,30,87.27-30,174.54-30,87.27,30,174.55,30,87.27-30,174.54-30,87.27,30,174.55,30,87.27-30,174.55-30,87.27,30,174.55,30"/><path class="cls-1" d="M.85,744.85c87.27,0,87.27,30,174.54,30s87.28-30,174.55-30,87.27,30,174.54,30,87.27-30,174.55-30,87.27,30,174.54,30,87.27-30,174.54-30,87.27,30,174.55,30,87.27-30,174.54-30,87.27,30,174.55,30,87.27-30,174.55-30,87.27,30,174.55,30"/><path class="cls-1" d="M.85,732.85c87.27,0,87.27,30,174.54,30s87.28-30,174.55-30,87.27,30,174.54,30,87.27-30,174.55-30,87.27,30,174.54,30,87.27-30,174.54-30,87.27,30,174.55,30,87.27-30,174.54-30,87.27,30,174.55,30,87.27-30,174.55-30,87.27,30,174.55,30"/><path class="cls-1" d="M.85,720.85c87.27,0,87.27,30,174.54,30s87.28-30,174.55-30,87.27,30,174.54,30,87.27-30,174.55-30,87.27,30,174.54,30,87.27-30,174.54-30,87.27,30,174.55,30,87.27-30,174.54-30,87.27,30,174.55,30,87.27-30,174.55-30,87.27,30,174.55,30"/><path class="cls-1" d="M.85,708.85c87.27,0,87.27,30,174.54,30s87.28-30,174.55-30,87.27,30,174.54,30,87.27-30,174.55-30,87.27,30,174.54,30,87.27-30,174.54-30,87.27,30,174.55,30,87.27-30,174.54-30,87.27,30,174.55,30,87.27-30,174.55-30,87.27,30,174.55,30"/><path class="cls-1" d="M.85,696.85c87.27,0,87.27,30,174.54,30s87.28-30,174.55-30,87.27,30,174.54,30,87.27-30,174.55-30,87.27,30,174.54,30,87.27-30,174.54-30,87.27,30,174.55,30,87.27-30,174.54-30,87.27,30,174.55,30,87.27-30,174.55-30,87.27,30,174.55,30"/><path class="cls-1" d="M.85,684.85c87.27,0,87.27,30,174.54,30s87.28-30,174.55-30,87.27,30,174.54,30,87.27-30,174.55-30,87.27,30,174.54,30,87.27-30,174.54-30,87.27,30,174.55,30,87.27-30,174.54-30,87.27,30,174.55,30,87.27-30,174.55-30,87.27,30,174.55,30"/><path class="cls-1" d="M.85,672.85c87.27,0,87.27,30,174.54,30s87.28-30,174.55-30,87.27,30,174.54,30,87.27-30,174.55-30,87.27,30,174.54,30,87.27-30,174.54-30,87.27,30,174.55,30,87.27-30,174.54-30,87.27,30,174.55,30,87.27-30,174.55-30,87.27,30,174.55,30"/><path class="cls-1" d="M.85,660.85c87.27,0,87.27,30,174.54,30s87.28-30,174.55-30,87.27,30,174.54,30,87.27-30,174.55-30,87.27,30,174.54,30,87.27-30,174.54-30,87.27,30,174.55,30,87.27-30,174.54-30,87.27,30,174.55,30,87.27-30,174.55-30,87.27,30,174.55,30"/><path class="cls-1" d="M.85,648.85c87.27,0,87.27,30,174.54,30s87.28-30,174.55-30,87.27,30,174.54,30,87.27-30,174.55-30,87.27,30,174.54,30,87.27-30,174.54-30,87.27,30,174.55,30,87.27-30,174.54-30,87.27,30,174.55,30,87.27-30,174.55-30,87.27,30,174.55,30"/><path class="cls-1" d="M.85,636.85c87.27,0,87.27,30,174.54,30s87.28-30,174.55-30,87.27,30,174.54,30,87.27-30,174.55-30,87.27,30,174.54,30,87.27-30,174.54-30,87.27,30,174.55,30,87.27-30,174.54-30,87.27,30,174.55,30,87.27-30,174.55-30,87.27,30,174.55,30"/><path class="cls-1" d="M.85,624.85c87.27,0,87.27,30,174.54,30s87.28-30,174.55-30,87.27,30,174.54,30,87.27-30,174.55-30,87.27,30,174.54,30,87.27-30,174.54-30,87.27,30,174.55,30,87.27-30,174.54-30,87.27,30,174.55,30,87.27-30,174.55-30,87.27,30,174.55,30"/><path class="cls-1" d="M.85,612.85c87.27,0,87.27,30,174.54,30s87.28-30,174.55-30,87.27,30,174.54,30,87.27-30,174.55-30,87.27,30,174.54,30,87.27-30,174.54-30,87.27,30,174.55,30,87.27-30,174.54-30,87.27,30,174.55,30,87.27-30,174.55-30,87.27,30,174.55,30"/><path class="cls-1" d="M.85,600.85c87.27,0,87.27,30,174.54,30s87.28-30,174.55-30,87.27,30,174.54,30,87.27-30,174.55-30,87.27,30,174.54,30,87.27-30,174.54-30,87.27,30,174.55,30,87.27-30,174.54-30,87.27,30,174.55,30,87.27-30,174.55-30,87.27,30,174.55,30"/><path class="cls-1" d="M.85,588.85c87.27,0,87.27,30,174.54,30s87.28-30,174.55-30,87.27,30,174.54,30,87.27-30,174.55-30,87.27,30,174.54,30,87.27-30,174.54-30,87.27,30,174.55,30,87.27-30,174.54-30,87.27,30,174.55,30,87.27-30,174.55-30,87.27,30,174.55,30"/><path class="cls-1" d="M.85,576.85c87.27,0,87.27,30,174.54,30s87.28-30,174.55-30,87.27,30,174.54,30,87.27-30,174.55-30,87.27,30,174.54,30,87.27-30,174.54-30,87.27,30,174.55,30,87.27-30,174.54-30,87.27,30,174.55,30,87.27-30,174.55-30,87.27,30,174.55,30"/><path class="cls-1" d="M.85,564.85c87.27,0,87.27,30,174.54,30s87.28-30,174.55-30,87.27,30,174.54,30,87.27-30,174.55-30,87.27,30,174.54,30,87.27-30,174.54-30,87.27,30,174.55,30,87.27-30,174.54-30,87.27,30,174.55,30,87.27-30,174.55-30,87.27,30,174.55,30"/><path class="cls-1" d="M.85,552.85c87.27,0,87.27,30,174.54,30s87.28-30,174.55-30,87.27,30,174.54,30,87.27-30,174.55-30,87.27,30,174.54,30,87.27-30,174.54-30,87.27,30,174.55,30,87.27-30,174.54-30,87.27,30,174.55,30,87.27-30,174.55-30,87.27,30,174.55,30"/><path class="cls-1" d="M.85,540.85c87.27,0,87.27,30,174.54,30s87.28-30,174.55-30,87.27,30,174.54,30,87.27-30,174.55-30,87.27,30,174.54,30,87.27-30,174.54-30,87.27,30,174.55,30,87.27-30,174.54-30,87.27,30,174.55,30,87.27-30,174.55-30,87.27,30,174.55,30"/><path class="cls-1" d="M.85,528.85c87.27,0,87.27,30,174.54,30s87.28-30,174.55-30,87.27,30,174.54,30,87.27-30,174.55-30,87.27,30,174.54,30,87.27-30,174.54-30,87.27,30,174.55,30,87.27-30,174.54-30,87.27,30,174.55,30,87.27-30,174.55-30,87.27,30,174.55,30"/><path class="cls-1" d="M.85,516.85c87.27,0,87.27,30,174.54,30s87.28-30,174.55-30,87.27,30,174.54,30,87.27-30,174.55-30,87.27,30,174.54,30,87.27-30,174.54-30,87.27,30,174.55,30,87.27-30,174.54-30,87.27,30,174.55,30,87.27-30,174.55-30,87.27,30,174.55,30"/><path class="cls-1" d="M.85,504.85c87.27,0,87.27,30,174.54,30s87.28-30,174.55-30,87.27,30,174.54,30,87.27-30,174.55-30,87.27,30,174.54,30,87.27-30,174.54-30,87.27,30,174.55,30,87.27-30,174.54-30,87.27,30,174.55,30,87.27-30,174.55-30,87.27,30,174.55,30"/><path class="cls-1" d="M.85,492.85c87.27,0,87.27,30,174.54,30s87.28-30,174.55-30,87.27,30,174.54,30,87.27-30,174.55-30,87.27,30,174.54,30,87.27-30,174.54-30,87.27,30,174.55,30,87.27-30,174.54-30,87.27,30,174.55,30,87.27-30,174.55-30,87.27,30,174.55,30"/><path class="cls-1" d="M.85,480.85c87.27,0,87.27,30,174.54,30s87.28-30,174.55-30,87.27,30,174.54,30,87.27-30,174.55-30,87.27,30,174.54,30,87.27-30,174.54-30,87.27,30,174.55,30,87.27-30,174.54-30,87.27,30,174.55,30,87.27-30,174.55-30,87.27,30,174.55,30"/><path class="cls-1" d="M.85,468.85c87.27,0,87.27,30,174.54,30s87.28-30,174.55-30,87.27,30,174.54,30,87.27-30,174.55-30,87.27,30,174.54,30,87.27-30,174.54-30,87.27,30,174.55,30,87.27-30,174.54-30,87.27,30,174.55,30,87.27-30,174.55-30,87.27,30,174.55,30"/><path class="cls-1" d="M.85,456.85c87.27,0,87.27,30,174.54,30s87.28-30,174.55-30,87.27,30,174.54,30,87.27-30,174.55-30,87.27,30,174.54,30,87.27-30,174.54-30,87.27,30,174.55,30,87.27-30,174.54-30,87.27,30,174.55,30,87.27-30,174.55-30,87.27,30,174.55,30"/><path class="cls-1" d="M.85,444.85c87.27,0,87.27,30,174.54,30s87.28-30,174.55-30,87.27,30,174.54,30,87.27-30,174.55-30,87.27,30,174.54,30,87.27-30,174.54-30,87.27,30,174.55,30,87.27-30,174.54-30,87.27,30,174.55,30,87.27-30,174.55-30,87.27,30,174.55,30"/><path class="cls-1" d="M.85,432.85c87.27,0,87.27,30,174.54,30s87.28-30,174.55-30,87.27,30,174.54,30,87.27-30,174.55-30,87.27,30,174.54,30,87.27-30,174.54-30,87.27,30,174.55,30,87.27-30,174.54-30,87.27,30,174.55,30,87.27-30,174.55-30,87.27,30,174.55,30"/><path class="cls-1" d="M.85,420.85c87.27,0,87.27,30,174.54,30s87.28-30,174.55-30,87.27,30,174.54,30,87.27-30,174.55-30,87.27,30,174.54,30,87.27-30,174.54-30,87.27,30,174.55,30,87.27-30,174.54-30,87.27,30,174.55,30,87.27-30,174.55-30,87.27,30,174.55,30"/><path class="cls-1" d="M.85,408.85c87.27,0,87.27,30,174.54,30s87.28-30,174.55-30,87.27,30,174.54,30,87.27-30,174.55-30,87.27,30,174.54,30,87.27-30,174.54-30,87.27,30,174.55,30,87.27-30,174.54-30,87.27,30,174.55,30,87.27-30,174.55-30,87.27,30,174.55,30"/><path class="cls-1" d="M.85,396.85c87.27,0,87.27,30,174.54,30s87.28-30,174.55-30,87.27,30,174.54,30,87.27-30,174.55-30,87.27,30,174.54,30,87.27-30,174.54-30,87.27,30,174.55,30,87.27-30,174.54-30,87.27,30,174.55,30,87.27-30,174.55-30,87.27,30,174.55,30"/><path class="cls-1" d="M.85,384.85c87.27,0,87.27,30,174.54,30s87.28-30,174.55-30,87.27,30,174.54,30,87.27-30,174.55-30,87.27,30,174.54,30,87.27-30,174.54-30,87.27,30,174.55,30,87.27-30,174.54-30,87.27,30,174.55,30,87.27-30,174.55-30,87.27,30,174.55,30"/><path class="cls-1" d="M.85,372.85c87.27,0,87.27,30,174.54,30s87.28-30,174.55-30,87.27,30,174.54,30,87.27-30,174.55-30,87.27,30,174.54,30,87.27-30,174.54-30,87.27,30,174.55,30,87.27-30,174.54-30,87.27,30,174.55,30,87.27-30,174.55-30,87.27,30,174.55,30"/><path class="cls-1" d="M.85,360.85c87.27,0,87.27,30,174.54,30s87.28-30,174.55-30,87.27,30,174.54,30,87.27-30,174.55-30,87.27,30,174.54,30,87.27-30,174.54-30,87.27,30,174.55,30,87.27-30,174.54-30,87.27,30,174.55,30,87.27-30,174.55-30,87.27,30,174.55,30"/><path class="cls-1" d="M.85,348.85c87.27,0,87.27,30,174.54,30s87.28-30,174.55-30,87.27,30,174.54,30,87.27-30,174.55-30,87.27,30,174.54,30,87.27-30,174.54-30,87.27,30,174.55,30,87.27-30,174.54-30,87.27,30,174.55,30,87.27-30,174.55-30,87.27,30,174.55,30"/><path class="cls-1" d="M.85,336.85c87.27,0,87.27,30,174.54,30s87.28-30,174.55-30,87.27,30,174.54,30,87.27-30,174.55-30,87.27,30,174.54,30,87.27-30,174.54-30,87.27,30,174.55,30,87.27-30,174.54-30,87.27,30,174.55,30,87.27-30,174.55-30,87.27,30,174.55,30"/><path class="cls-1" d="M.85,324.85c87.27,0,87.27,30,174.54,30s87.28-30,174.55-30,87.27,30,174.54,30,87.27-30,174.55-30,87.27,30,174.54,30,87.27-30,174.54-30,87.27,30,174.55,30,87.27-30,174.54-30,87.27,30,174.55,30,87.27-30,174.55-30,87.27,30,174.55,30"/><path class="cls-1" d="M.85,312.85c87.27,0,87.27,30,174.54,30s87.28-30,174.55-30,87.27,30,174.54,30,87.27-30,174.55-30,87.27,30,174.54,30,87.27-30,174.54-30,87.27,30,174.55,30,87.27-30,174.54-30,87.27,30,174.55,30,87.27-30,174.55-30,87.27,30,174.55,30"/><path class="cls-1" d="M.85,300.85c87.27,0,87.27,30,174.54,30s87.28-30,174.55-30,87.27,30,174.54,30,87.27-30,174.55-30,87.27,30,174.54,30,87.27-30,174.54-30,87.27,30,174.55,30,87.27-30,174.54-30,87.27,30,174.55,30,87.27-30,174.55-30,87.27,30,174.55,30"/><path class="cls-1" d="M.85,288.85c87.27,0,87.27,30,174.54,30s87.28-30,174.55-30,87.27,30,174.54,30,87.27-30,174.55-30,87.27,30,174.54,30,87.27-30,174.54-30,87.27,30,174.55,30,87.27-30,174.54-30,87.27,30,174.55,30,87.27-30,174.55-30,87.27,30,174.55,30"/><path class="cls-1" d="M.85,276.85c87.27,0,87.27,30,174.54,30s87.28-30,174.55-30,87.27,30,174.54,30,87.27-30,174.55-30,87.27,30,174.54,30,87.27-30,174.54-30,87.27,30,174.55,30,87.27-30,174.54-30,87.27,30,174.55,30,87.27-30,174.55-30,87.27,30,174.55,30"/><path class="cls-1" d="M.85,264.85c87.27,0,87.27,30,174.54,30s87.28-30,174.55-30,87.27,30,174.54,30,87.27-30,174.55-30,87.27,30,174.54,30,87.27-30,174.54-30,87.27,30,174.55,30,87.27-30,174.54-30,87.27,30,174.55,30,87.27-30,174.55-30,87.27,30,174.55,30"/><path class="cls-1" d="M.85,252.85c87.27,0,87.27,30,174.54,30s87.28-30,174.55-30,87.27,30,174.54,30,87.27-30,174.55-30,87.27,30,174.54,30,87.27-30,174.54-30,87.27,30,174.55,30,87.27-30,174.54-30,87.27,30,174.55,30,87.27-30,174.55-30,87.27,30,174.55,30"/><path class="cls-1" d="M.85,240.85c87.27,0,87.27,30,174.54,30s87.28-30,174.55-30,87.27,30,174.54,30,87.27-30,174.55-30,87.27,30,174.54,30,87.27-30,174.54-30,87.27,30,174.55,30,87.27-30,174.54-30,87.27,30,174.55,30,87.27-30,174.55-30,87.27,30,174.55,30"/><path class="cls-1" d="M.85,228.85c87.27,0,87.27,30,174.54,30s87.28-30,174.55-30,87.27,30,174.54,30,87.27-30,174.55-30,87.27,30,174.54,30,87.27-30,174.54-30,87.27,30,174.55,30,87.27-30,174.54-30,87.27,30,174.55,30,87.27-30,174.55-30,87.27,30,174.55,30"/><path class="cls-1" d="M.85,216.85c87.27,0,87.27,30,174.54,30s87.28-30,174.55-30,87.27,30,174.54,30,87.27-30,174.55-30,87.27,30,174.54,30,87.27-30,174.54-30,87.27,30,174.55,30,87.27-30,174.54-30,87.27,30,174.55,30,87.27-30,174.55-30,87.27,30,174.55,30"/><path class="cls-1" d="M.85,204.85c87.27,0,87.27,30,174.54,30s87.28-30,174.55-30,87.27,30,174.54,30,87.27-30,174.55-30,87.27,30,174.54,30,87.27-30,174.54-30,87.27,30,174.55,30,87.27-30,174.54-30,87.27,30,174.55,30,87.27-30,174.55-30,87.27,30,174.55,30"/><path class="cls-1" d="M.85,192.85c87.27,0,87.27,30,174.54,30s87.28-30,174.55-30,87.27,30,174.54,30,87.27-30,174.55-30,87.27,30,174.54,30,87.27-30,174.54-30,87.27,30,174.55,30,87.27-30,174.54-30,87.27,30,174.55,30,87.27-30,174.55-30,87.27,30,174.55,30"/><path class="cls-1" d="M.85,180.85c87.27,0,87.27,30,174.54,30s87.28-30,174.55-30,87.27,30,174.54,30,87.27-30,174.55-30,87.27,30,174.54,30,87.27-30,174.54-30,87.27,30,174.55,30,87.27-30,174.54-30,87.27,30,174.55,30,87.27-30,174.55-30,87.27,30,174.55,30"/><path class="cls-1" d="M.85,168.85c87.27,0,87.27,30,174.54,30s87.28-30,174.55-30,87.27,30,174.54,30,87.27-30,174.55-30,87.27,30,174.54,30,87.27-30,174.54-30,87.27,30,174.55,30,87.27-30,174.54-30,87.27,30,174.55,30,87.27-30,174.55-30,87.27,30,174.55,30"/><path class="cls-1" d="M.85,156.85c87.27,0,87.27,30,174.54,30s87.28-30,174.55-30,87.27,30,174.54,30,87.27-30,174.55-30,87.27,30,174.54,30,87.27-30,174.54-30,87.27,30,174.55,30,87.27-30,174.54-30,87.27,30,174.55,30,87.27-30,174.55-30,87.27,30,174.55,30"/><path class="cls-1" d="M.85,144.85c87.27,0,87.27,30,174.54,30s87.28-30,174.55-30,87.27,30,174.54,30,87.27-30,174.55-30,87.27,30,174.54,30,87.27-30,174.54-30,87.27,30,174.55,30,87.27-30,174.54-30,87.27,30,174.55,30,87.27-30,174.55-30,87.27,30,174.55,30"/><path class="cls-1" d="M.85,132.85c87.27,0,87.27,30,174.54,30s87.28-30,174.55-30,87.27,30,174.54,30,87.27-30,174.55-30,87.27,30,174.54,30,87.27-30,174.54-30,87.27,30,174.55,30,87.27-30,174.54-30,87.27,30,174.55,30,87.27-30,174.55-30,87.27,30,174.55,30"/><path class="cls-1" d="M.85,120.85c87.27,0,87.27,30,174.54,30s87.28-30,174.55-30,87.27,30,174.54,30,87.27-30,174.55-30,87.27,30,174.54,30,87.27-30,174.54-30,87.27,30,174.55,30,87.27-30,174.54-30,87.27,30,174.55,30,87.27-30,174.55-30,87.27,30,174.55,30"/><path class="cls-1" d="M.85,108.85c87.27,0,87.27,30,174.54,30s87.28-30,174.55-30,87.27,30,174.54,30,87.27-30,174.55-30,87.27,30,174.54,30,87.27-30,174.54-30,87.27,30,174.55,30,87.27-30,174.54-30,87.27,30,174.55,30,87.27-30,174.55-30,87.27,30,174.55,30"/><path class="cls-1" d="M.85,96.85c87.27,0,87.27,30,174.54,30s87.28-30,174.55-30,87.27,30,174.54,30,87.27-30,174.55-30,87.27,30,174.54,30,87.27-30,174.54-30,87.27,30,174.55,30,87.27-30,174.54-30,87.27,30,174.55,30,87.27-30,174.55-30,87.27,30,174.55,30"/><path class="cls-1" d="M.85,84.85c87.27,0,87.27,30,174.54,30s87.28-30,174.55-30,87.27,30,174.54,30,87.27-30,174.55-30,87.27,30,174.54,30,87.27-30,174.54-30,87.27,30,174.55,30,87.27-30,174.54-30,87.27,30,174.55,30,87.27-30,174.55-30,87.27,30,174.55,30"/><path class="cls-1" d="M.85,72.85c87.27,0,87.27,30,174.54,30s87.28-30,174.55-30,87.27,30,174.54,30,87.27-30,174.55-30,87.27,30,174.54,30,87.27-30,174.54-30,87.27,30,174.55,30,87.27-30,174.54-30,87.27,30,174.55,30,87.27-30,174.55-30,87.27,30,174.55,30"/><path class="cls-1" d="M.85,60.85c87.27,0,87.27,30,174.54,30s87.28-30,174.55-30,87.27,30,174.54,30,87.27-30,174.55-30,87.27,30,174.54,30,87.27-30,174.54-30,87.27,30,174.55,30,87.27-30,174.54-30,87.27,30,174.55,30,87.27-30,174.55-30,87.27,30,174.55,30"/><path class="cls-1" d="M.85,48.85c87.27,0,87.27,30,174.54,30s87.28-30,174.55-30,87.27,30,174.54,30,87.27-30,174.55-30,87.27,30,174.54,30,87.27-30,174.54-30,87.27,30,174.55,30,87.27-30,174.54-30,87.27,30,174.55,30,87.27-30,174.55-30,87.27,30,174.55,30"/><path class="cls-1" d="M.85,36.85c87.27,0,87.27,30,174.54,30s87.28-30,174.55-30,87.27,30,174.54,30,87.27-30,174.55-30,87.27,30,174.54,30,87.27-30,174.54-30,87.27,30,174.55,30,87.27-30,174.54-30,87.27,30,174.55,30,87.27-30,174.55-30,87.27,30,174.55,30"/><path class="cls-1" d="M.85,24.85c87.27,0,87.27,30,174.54,30s87.28-30,174.55-30,87.27,30,174.54,30,87.27-30,174.55-30,87.27,30,174.54,30,87.27-30,174.54-30,87.27,30,174.55,30,87.27-30,174.54-30,87.27,30,174.55,30,87.27-30,174.55-30,87.27,30,174.55,30"/><path class="cls-1" d="M.85,12.85c87.27,0,87.27,30,174.54,30s87.28-30,174.55-30,87.27,30,174.54,30,87.27-30,174.55-30,87.27,30,174.54,30,87.27-30,174.54-30,87.27,30,174.55,30,87.27-30,174.54-30,87.27,30,174.55,30,87.27-30,174.55-30,87.27,30,174.55,30"/><path class="cls-1" d="M.85.85c87.27,0,87.27,30,174.54,30s87.28-30,174.55-30,87.27,30,174.54,30S611.75.85,699,.85s87.27,30,174.54,30,87.27-30,174.54-30,87.27,30,174.55,30,87.27-30,174.54-30,87.27,30,174.55,30S1659,.85,1746.3.85s87.27,30,174.55,30"/></g></g></svg>