<svg xmlns="http://www.w3.org/2000/svg" viewBox="0 0 1921.42 1267.42"><defs><style>.cls-1{fill:none;stroke:#1d1d1b;stroke-linecap:round;stroke-miterlimit:10;stroke-width:1.42px;}</style></defs><g id="Layer_2" data-name="Layer 2"><g id="Layer_1-2" data-name="Layer 1"><path class="cls-1" d="M.71,1236.71c87.27,0,87.27,30,174.54,30s87.27-30,174.55-30,87.27,30,174.54,30,87.27-30,174.54-30,87.28,30,174.55,30,87.27-30,174.54-30,87.27,30,174.54,30,87.28-30,174.55-30,87.27,30,174.54,30,87.28-30,174.56-30,87.27,30,174.55,30"/><path class="cls-1" d="M.71,1224.71c87.27,0,87.27,30,174.54,30s87.27-30,174.55-30,87.27,30,174.54,30,87.27-30,174.54-30,87.28,30,174.55,30,87.27-30,174.54-30,87.27,30,174.54,30,87.28-30,174.55-30,87.27,30,174.54,30,87.28-30,174.56-30,87.27,30,174.55,30"/><path class="cls-1" d="M.71,1212.71c87.27,0,87.27,30,174.54,30s87.27-30,174.55-30,87.27,30,174.54,30,87.27-30,174.54-30,87.28,30,174.55,30,87.27-30,174.54-30,87.27,30,174.54,30,87.28-30,174.55-30,87.27,30,174.54,30,87.28-30,174.56-30,87.27,30,174.55,30"/><path class="cls-1" d="M.71,1200.71c87.27,0,87.27,30,174.54,30s87.27-30,174.55-30,87.27,30,174.54,30,87.27-30,174.54-30,87.28,30,174.55,30,87.27-30,174.54-30,87.27,30,174.54,30,87.28-30,174.55-30,87.27,30,174.54,30,87.28-30,174.56-30,87.27,30,174.55,30"/><path class="cls-1" d="M.71,1188.71c87.27,0,87.27,30,174.54,30s87.27-30,174.55-30,87.27,30,174.54,30,87.27-30,174.54-30,87.28,30,174.55,30,87.27-30,174.54-30,87.27,30,174.54,30,87.28-30,174.55-30,87.27,30,174.54,30,87.28-30,174.56-30,87.27,30,174.55,30"/><path class="cls-1" d="M.71,1176.71c87.27,0,87.27,30,174.54,30s87.27-30,174.55-30,87.27,30,174.54,30,87.27-30,174.54-30,87.28,30,174.55,30,87.27-30,174.54-30,87.27,30,174.54,30,87.28-30,174.55-30,87.27,30,174.54,30,87.28-30,174.56-30,87.27,30,174.55,30"/><path class="cls-1" d="M.71,1164.71c87.27,0,87.27,30,174.54,30s87.27-30,174.55-30,87.27,30,174.54,30,87.27-30,174.54-30,87.28,30,174.55,30,87.27-30,174.54-30,87.27,30,174.54,30,87.28-30,174.55-30,87.27,30,174.54,30,87.28-30,174.56-30,87.27,30,174.55,30"/><path class="cls-1" d="M.71,1152.71c87.27,0,87.27,30,174.54,30s87.27-30,174.55-30,87.27,30,174.54,30,87.27-30,174.54-30,87.28,30,174.55,30,87.27-30,174.54-30,87.27,30,174.54,30,87.28-30,174.55-30,87.27,30,174.54,30,87.28-30,174.56-30,87.27,30,174.55,30"/><path class="cls-1" d="M.71,1140.71c87.27,0,87.27,30,174.54,30s87.27-30,174.55-30,87.27,30,174.54,30,87.27-30,174.54-30,87.28,30,174.55,30,87.27-30,174.54-30,87.27,30,174.54,30,87.28-30,174.55-30,87.27,30,174.54,30,87.28-30,174.56-30,87.27,30,174.55,30"/><path class="cls-1" d="M.71,1128.71c87.27,0,87.27,30,174.54,30s87.27-30,174.55-30,87.27,30,174.54,30,87.27-30,174.54-30,87.28,30,174.55,30,87.27-30,174.54-30,87.27,30,174.54,30,87.28-30,174.55-30,87.27,30,174.54,30,87.28-30,174.56-30,87.27,30,174.55,30"/><path class="cls-1" d="M.71,1116.71c87.27,0,87.27,30,174.54,30s87.27-30,174.55-30,87.27,30,174.54,30,87.27-30,174.54-30,87.28,30,174.55,30,87.27-30,174.54-30,87.27,30,174.54,30,87.28-30,174.55-30,87.27,30,174.54,30,87.28-30,174.56-30,87.27,30,174.55,30"/><path class="cls-1" d="M.71,1104.71c87.27,0,87.27,30,174.54,30s87.27-30,174.55-30,87.27,30,174.54,30,87.27-30,174.54-30,87.28,30,174.55,30,87.27-30,174.54-30,87.27,30,174.54,30,87.28-30,174.55-30,87.27,30,174.54,30,87.28-30,174.56-30,87.27,30,174.55,30"/><path class="cls-1" d="M.71,1092.71c87.27,0,87.27,30,174.54,30s87.27-30,174.55-30,87.27,30,174.54,30,87.27-30,174.54-30,87.28,30,174.55,30,87.27-30,174.54-30,87.27,30,174.54,30,87.28-30,174.55-30,87.27,30,174.54,30,87.28-30,174.56-30,87.27,30,174.55,30"/><path class="cls-1" d="M.71,1080.71c87.27,0,87.27,30,174.54,30s87.27-30,174.55-30,87.27,30,174.54,30,87.27-30,174.54-30,87.28,30,174.55,30,87.27-30,174.54-30,87.27,30,174.54,30,87.28-30,174.55-30,87.27,30,174.54,30,87.28-30,174.56-30,87.27,30,174.55,30"/><path class="cls-1" d="M.71,1068.71c87.27,0,87.27,30,174.54,30s87.27-30,174.55-30,87.27,30,174.54,30,87.27-30,174.54-30,87.28,30,174.55,30,87.27-30,174.54-30,87.27,30,174.54,30,87.28-30,174.55-30,87.27,30,174.54,30,87.28-30,174.56-30,87.27,30,174.55,30"/><path class="cls-1" d="M.71,1056.71c87.27,0,87.27,30,174.54,30s87.27-30,174.55-30,87.27,30,174.54,30,87.27-30,174.54-30,87.28,30,174.55,30,87.27-30,174.54-30,87.27,30,174.54,30,87.28-30,174.55-30,87.27,30,174.54,30,87.28-30,174.56-30,87.27,30,174.55,30"/><path class="cls-1" d="M.71,1044.71c87.27,0,87.27,30,174.54,30s87.27-30,174.55-30,87.27,30,174.54,30,87.27-30,174.54-30,87.28,30,174.55,30,87.27-30,174.54-30,87.27,30,174.54,30,87.28-30,174.55-30,87.27,30,174.54,30,87.28-30,174.56-30,87.27,30,174.55,30"/><path class="cls-1" d="M.71,1032.71c87.27,0,87.27,30,174.54,30s87.27-30,174.55-30,87.27,30,174.54,30,87.27-30,174.54-30,87.28,30,174.55,30,87.27-30,174.54-30,87.27,30,174.54,30,87.28-30,174.55-30,87.27,30,174.54,30,87.28-30,174.56-30,87.27,30,174.55,30"/><path class="cls-1" d="M.71,1020.71c87.27,0,87.27,30,174.54,30s87.27-30,174.55-30,87.27,30,174.54,30,87.27-30,174.54-30,87.28,30,174.55,30,87.27-30,174.54-30,87.27,30,174.54,30,87.28-30,174.55-30,87.27,30,174.54,30,87.28-30,174.56-30,87.27,30,174.55,30"/><path class="cls-1" d="M.71,1008.71c87.27,0,87.27,30,174.54,30s87.27-30,174.55-30,87.27,30,174.54,30,87.27-30,174.54-30,87.28,30,174.55,30,87.27-30,174.54-30,87.27,30,174.54,30,87.28-30,174.55-30,87.27,30,174.54,30,87.28-30,174.56-30,87.27,30,174.55,30"/><path class="cls-1" d="M.71,996.71c87.27,0,87.27,30,174.54,30s87.27-30,174.55-30,87.27,30,174.54,30,87.27-30,174.54-30,87.28,30,174.55,30,87.27-30,174.54-30,87.27,30,174.54,30,87.28-30,174.55-30,87.27,30,174.54,30,87.28-30,174.56-30,87.27,30,174.55,30"/><path class="cls-1" d="M.71,984.71c87.27,0,87.27,30,174.54,30s87.27-30,174.55-30,87.27,30,174.54,30,87.27-30,174.54-30,87.28,30,174.55,30,87.27-30,174.54-30,87.27,30,174.54,30,87.28-30,174.55-30,87.27,30,174.54,30,87.28-30,174.56-30,87.27,30,174.55,30"/><path class="cls-1" d="M.71,972.71c87.27,0,87.27,30,174.54,30s87.27-30,174.55-30,87.27,30,174.54,30,87.27-30,174.54-30,87.28,30,174.55,30,87.27-30,174.54-30,87.27,30,174.54,30,87.28-30,174.55-30,87.27,30,174.54,30,87.28-30,174.56-30,87.27,30,174.55,30"/><path class="cls-1" d="M.71,960.71c87.27,0,87.27,30,174.54,30s87.27-30,174.55-30,87.27,30,174.54,30,87.27-30,174.54-30,87.28,30,174.55,30,87.27-30,174.54-30,87.27,30,174.54,30,87.28-30,174.55-30,87.27,30,174.54,30,87.28-30,174.56-30,87.27,30,174.55,30"/><path class="cls-1" d="M.71,948.71c87.27,0,87.27,30,174.54,30s87.27-30,174.55-30,87.27,30,174.54,30,87.27-30,174.54-30,87.28,30,174.55,30,87.27-30,174.54-30,87.27,30,174.54,30,87.28-30,174.55-30,87.27,30,174.54,30,87.28-30,174.56-30,87.27,30,174.55,30"/><path class="cls-1" d="M.71,936.71c87.27,0,87.27,30,174.54,30s87.27-30,174.55-30,87.27,30,174.54,30,87.27-30,174.54-30,87.28,30,174.55,30,87.27-30,174.54-30,87.27,30,174.54,30,87.28-30,174.55-30,87.27,30,174.54,30,87.28-30,174.56-30,87.27,30,174.55,30"/><path class="cls-1" d="M.71,924.71c87.27,0,87.27,30,174.54,30s87.27-30,174.55-30,87.27,30,174.54,30,87.27-30,174.54-30,87.28,30,174.55,30,87.27-30,174.54-30,87.27,30,174.54,30,87.28-30,174.55-30,87.27,30,174.54,30,87.28-30,174.56-30,87.27,30,174.55,30"/><path class="cls-1" d="M.71,912.71c87.27,0,87.27,30,174.54,30s87.27-30,174.55-30,87.27,30,174.54,30,87.27-30,174.54-30,87.28,30,174.55,30,87.27-30,174.54-30,87.27,30,174.54,30,87.28-30,174.55-30,87.27,30,174.54,30,87.28-30,174.56-30,87.27,30,174.55,30"/><path class="cls-1" d="M.71,900.71c87.27,0,87.27,30,174.54,30s87.27-30,174.55-30,87.27,30,174.54,30,87.27-30,174.54-30,87.28,30,174.55,30,87.27-30,174.54-30,87.27,30,174.54,30,87.28-30,174.55-30,87.27,30,174.54,30,87.28-30,174.56-30,87.27,30,174.55,30"/><path class="cls-1" d="M.71,888.71c87.27,0,87.27,30,174.54,30s87.27-30,174.55-30,87.27,30,174.54,30,87.27-30,174.54-30,87.28,30,174.55,30,87.27-30,174.54-30,87.27,30,174.54,30,87.28-30,174.55-30,87.27,30,174.54,30,87.28-30,174.56-30,87.27,30,174.55,30"/><path class="cls-1" d="M.71,876.71c87.27,0,87.27,30,174.54,30s87.27-30,174.55-30,87.27,30,174.54,30,87.27-30,174.54-30,87.28,30,174.55,30,87.27-30,174.54-30,87.27,30,174.54,30,87.28-30,174.55-30,87.27,30,174.54,30,87.28-30,174.56-30,87.27,30,174.55,30"/><path class="cls-1" d="M.71,864.71c87.27,0,87.27,30,174.54,30s87.27-30,174.55-30,87.27,30,174.54,30,87.27-30,174.54-30,87.28,30,174.55,30,87.27-30,174.54-30,87.27,30,174.54,30,87.28-30,174.55-30,87.27,30,174.54,30,87.28-30,174.56-30,87.27,30,174.55,30"/><path class="cls-1" d="M.71,852.71c87.27,0,87.27,30,174.54,30s87.27-30,174.55-30,87.27,30,174.54,30,87.27-30,174.54-30,87.28,30,174.55,30,87.27-30,174.54-30,87.27,30,174.54,30,87.28-30,174.55-30,87.27,30,174.54,30,87.28-30,174.56-30,87.27,30,174.55,30"/><path class="cls-1" d="M.71,840.71c87.27,0,87.27,30,174.54,30s87.27-30,174.55-30,87.27,30,174.54,30,87.27-30,174.54-30,87.28,30,174.55,30,87.27-30,174.54-30,87.27,30,174.54,30,87.28-30,174.55-30,87.27,30,174.54,30,87.28-30,174.56-30,87.27,30,174.55,30"/><path class="cls-1" d="M.71,828.71c87.27,0,87.27,30,174.54,30s87.27-30,174.55-30,87.27,30,174.54,30,87.27-30,174.54-30,87.28,30,174.55,30,87.27-30,174.54-30,87.27,30,174.54,30,87.28-30,174.55-30,87.27,30,174.54,30,87.28-30,174.56-30,87.27,30,174.55,30"/><path class="cls-1" d="M.71,816.71c87.27,0,87.27,30,174.54,30s87.27-30,174.55-30,87.27,30,174.54,30,87.27-30,174.54-30,87.28,30,174.55,30,87.27-30,174.54-30,87.27,30,174.54,30,87.28-30,174.55-30,87.27,30,174.54,30,87.28-30,174.56-30,87.27,30,174.55,30"/><path class="cls-1" d="M.71,804.71c87.27,0,87.27,30,174.54,30s87.27-30,174.55-30,87.27,30,174.54,30,87.27-30,174.54-30,87.28,30,174.55,30,87.27-30,174.54-30,87.27,30,174.54,30,87.28-30,174.55-30,87.27,30,174.54,30,87.28-30,174.56-30,87.27,30,174.55,30"/><path class="cls-1" d="M.71,792.71c87.27,0,87.27,30,174.54,30s87.27-30,174.55-30,87.27,30,174.54,30,87.27-30,174.54-30,87.28,30,174.55,30,87.27-30,174.54-30,87.27,30,174.54,30,87.28-30,174.55-30,87.27,30,174.54,30,87.28-30,174.56-30,87.27,30,174.55,30"/><path class="cls-1" d="M.71,780.71c87.27,0,87.27,30,174.54,30s87.27-30,174.55-30,87.27,30,174.54,30,87.27-30,174.54-30,87.28,30,174.55,30,87.27-30,174.54-30,87.27,30,174.54,30,87.28-30,174.55-30,87.27,30,174.54,30,87.28-30,174.56-30,87.27,30,174.55,30"/><path class="cls-1" d="M.71,768.71c87.27,0,87.27,30,174.54,30s87.27-30,174.55-30,87.27,30,174.54,30,87.27-30,174.54-30,87.28,30,174.55,30,87.27-30,174.54-30,87.27,30,174.54,30,87.28-30,174.55-30,87.27,30,174.54,30,87.28-30,174.56-30,87.27,30,174.55,30"/><path class="cls-1" d="M.71,756.71c87.27,0,87.27,30,174.54,30s87.27-30,174.55-30,87.27,30,174.54,30,87.27-30,174.54-30,87.28,30,174.55,30,87.27-30,174.54-30,87.27,30,174.54,30,87.28-30,174.55-30,87.27,30,174.54,30,87.28-30,174.56-30,87.27,30,174.55,30"/><path class="cls-1" d="M.71,744.71c87.27,0,87.27,30,174.54,30s87.27-30,174.55-30,87.27,30,174.54,30,87.27-30,174.54-30,87.28,30,174.55,30,87.27-30,174.54-30,87.27,30,174.54,30,87.28-30,174.55-30,87.27,30,174.54,30,87.28-30,174.56-30,87.27,30,174.55,30"/><path class="cls-1" d="M.71,732.71c87.27,0,87.27,30,174.54,30s87.27-30,174.55-30,87.27,30,174.54,30,87.27-30,174.54-30,87.28,30,174.55,30,87.27-30,174.54-30,87.27,30,174.54,30,87.28-30,174.55-30,87.27,30,174.54,30,87.28-30,174.56-30,87.27,30,174.55,30"/><path class="cls-1" d="M.71,720.71c87.27,0,87.27,30,174.54,30s87.27-30,174.55-30,87.27,30,174.54,30,87.27-30,174.54-30,87.28,30,174.55,30,87.27-30,174.54-30,87.27,30,174.54,30,87.28-30,174.55-30,87.27,30,174.54,30,87.28-30,174.56-30,87.27,30,174.55,30"/><path class="cls-1" d="M.71,708.71c87.27,0,87.27,30,174.54,30s87.27-30,174.55-30,87.27,30,174.54,30,87.27-30,174.54-30,87.28,30,174.55,30,87.27-30,174.54-30,87.27,30,174.54,30,87.28-30,174.55-30,87.27,30,174.54,30,87.28-30,174.56-30,87.27,30,174.55,30"/><path class="cls-1" d="M.71,696.71c87.27,0,87.27,30,174.54,30s87.27-30,174.55-30,87.27,30,174.54,30,87.27-30,174.54-30,87.28,30,174.55,30,87.27-30,174.54-30,87.27,30,174.54,30,87.28-30,174.55-30,87.27,30,174.54,30,87.28-30,174.56-30,87.27,30,174.55,30"/><path class="cls-1" d="M.71,684.71c87.27,0,87.27,30,174.54,30s87.27-30,174.55-30,87.27,30,174.54,30,87.27-30,174.54-30,87.28,30,174.55,30,87.27-30,174.54-30,87.27,30,174.54,30,87.28-30,174.55-30,87.27,30,174.54,30,87.28-30,174.56-30,87.27,30,174.55,30"/><path class="cls-1" d="M.71,672.71c87.27,0,87.27,30,174.54,30s87.27-30,174.55-30,87.27,30,174.54,30,87.27-30,174.54-30,87.28,30,174.55,30,87.27-30,174.54-30,87.27,30,174.54,30,87.28-30,174.55-30,87.27,30,174.54,30,87.28-30,174.56-30,87.27,30,174.55,30"/><path class="cls-1" d="M.71,660.71c87.27,0,87.27,30,174.54,30s87.27-30,174.55-30,87.27,30,174.54,30,87.27-30,174.54-30,87.28,30,174.55,30,87.27-30,174.54-30,87.27,30,174.54,30,87.28-30,174.55-30,87.27,30,174.54,30,87.28-30,174.56-30,87.27,30,174.55,30"/><path class="cls-1" d="M.71,648.71c87.27,0,87.27,30,174.54,30s87.27-30,174.55-30,87.27,30,174.54,30,87.27-30,174.54-30,87.28,30,174.55,30,87.27-30,174.54-30,87.27,30,174.54,30,87.28-30,174.55-30,87.27,30,174.54,30,87.28-30,174.56-30,87.27,30,174.55,30"/><path class="cls-1" d="M.71,636.71c87.27,0,87.27,30,174.54,30s87.27-30,174.55-30,87.27,30,174.54,30,87.27-30,174.54-30,87.28,30,174.55,30,87.27-30,174.54-30,87.27,30,174.54,30,87.28-30,174.55-30,87.27,30,174.54,30,87.28-30,174.56-30,87.27,30,174.55,30"/><path class="cls-1" d="M.71,624.71c87.27,0,87.27,30,174.54,30s87.27-30,174.55-30,87.27,30,174.54,30,87.27-30,174.54-30,87.28,30,174.55,30,87.27-30,174.54-30,87.27,30,174.54,30,87.28-30,174.55-30,87.27,30,174.54,30,87.28-30,174.56-30,87.27,30,174.55,30"/><path class="cls-1" d="M.71,612.71c87.27,0,87.27,30,174.54,30s87.27-30,174.55-30,87.27,30,174.54,30,87.27-30,174.54-30,87.28,30,174.55,30,87.27-30,174.54-30,87.27,30,174.54,30,87.28-30,174.55-30,87.27,30,174.54,30,87.28-30,174.56-30,87.27,30,174.55,30"/><path class="cls-1" d="M.71,600.71c87.27,0,87.27,30,174.54,30s87.27-30,174.55-30,87.27,30,174.54,30,87.27-30,174.54-30,87.28,30,174.55,30,87.27-30,174.54-30,87.27,30,174.54,30,87.28-30,174.55-30,87.27,30,174.54,30,87.28-30,174.56-30,87.27,30,174.55,30"/><path class="cls-1" d="M.71,588.71c87.27,0,87.27,30,174.54,30s87.27-30,174.55-30,87.27,30,174.54,30,87.27-30,174.54-30,87.28,30,174.55,30,87.27-30,174.54-30,87.27,30,174.54,30,87.28-30,174.55-30,87.27,30,174.54,30,87.28-30,174.56-30,87.27,30,174.55,30"/><path class="cls-1" d="M.71,576.71c87.27,0,87.27,30,174.54,30s87.27-30,174.55-30,87.27,30,174.54,30,87.27-30,174.54-30,87.28,30,174.55,30,87.27-30,174.54-30,87.27,30,174.54,30,87.28-30,174.55-30,87.27,30,174.54,30,87.28-30,174.56-30,87.27,30,174.55,30"/><path class="cls-1" d="M.71,564.71c87.27,0,87.27,30,174.54,30s87.27-30,174.55-30,87.27,30,174.54,30,87.27-30,174.54-30,87.28,30,174.55,30,87.27-30,174.54-30,87.27,30,174.54,30,87.28-30,174.55-30,87.27,30,174.54,30,87.28-30,174.56-30,87.27,30,174.55,30"/><path class="cls-1" d="M.71,552.71c87.27,0,87.27,30,174.54,30s87.27-30,174.55-30,87.27,30,174.54,30,87.27-30,174.54-30,87.28,30,174.55,30,87.27-30,174.54-30,87.27,30,174.54,30,87.28-30,174.55-30,87.27,30,174.54,30,87.28-30,174.56-30,87.27,30,174.55,30"/><path class="cls-1" d="M.71,540.71c87.27,0,87.27,30,174.54,30s87.27-30,174.55-30,87.27,30,174.54,30,87.27-30,174.54-30,87.28,30,174.55,30,87.27-30,174.54-30,87.27,30,174.54,30,87.28-30,174.55-30,87.27,30,174.54,30,87.28-30,174.56-30,87.27,30,174.55,30"/><path class="cls-1" d="M.71,528.71c87.27,0,87.27,30,174.54,30s87.27-30,174.55-30,87.27,30,174.54,30,87.27-30,174.54-30,87.28,30,174.55,30,87.27-30,174.54-30,87.27,30,174.54,30,87.28-30,174.55-30,87.27,30,174.54,30,87.28-30,174.56-30,87.27,30,174.55,30"/><path class="cls-1" d="M.71,516.71c87.27,0,87.27,30,174.54,30s87.27-30,174.55-30,87.27,30,174.54,30,87.27-30,174.54-30,87.28,30,174.55,30,87.27-30,174.54-30,87.27,30,174.54,30,87.28-30,174.55-30,87.27,30,174.54,30,87.28-30,174.56-30,87.27,30,174.55,30"/><path class="cls-1" d="M.71,504.71c87.27,0,87.27,30,174.54,30s87.27-30,174.55-30,87.27,30,174.54,30,87.27-30,174.54-30,87.28,30,174.55,30,87.27-30,174.54-30,87.27,30,174.54,30,87.28-30,174.55-30,87.27,30,174.54,30,87.28-30,174.56-30,87.27,30,174.55,30"/><path class="cls-1" d="M.71,492.71c87.27,0,87.27,30,174.54,30s87.27-30,174.55-30,87.27,30,174.54,30,87.27-30,174.54-30,87.28,30,174.55,30,87.27-30,174.54-30,87.27,30,174.54,30,87.28-30,174.55-30,87.27,30,174.54,30,87.28-30,174.56-30,87.27,30,174.55,30"/><path class="cls-1" d="M.71,480.71c87.27,0,87.27,30,174.54,30s87.27-30,174.55-30,87.27,30,174.54,30,87.27-30,174.54-30,87.28,30,174.55,30,87.27-30,174.54-30,87.27,30,174.54,30,87.28-30,174.55-30,87.27,30,174.54,30,87.28-30,174.56-30,87.27,30,174.55,30"/><path class="cls-1" d="M.71,468.71c87.27,0,87.27,30,174.54,30s87.27-30,174.55-30,87.27,30,174.54,30,87.27-30,174.54-30,87.28,30,174.55,30,87.27-30,174.54-30,87.27,30,174.54,30,87.28-30,174.55-30,87.27,30,174.54,30,87.28-30,174.56-30,87.27,30,174.55,30"/><path class="cls-1" d="M.71,456.71c87.27,0,87.27,30,174.54,30s87.27-30,174.55-30,87.27,30,174.54,30,87.27-30,174.54-30,87.28,30,174.55,30,87.27-30,174.54-30,87.27,30,174.54,30,87.28-30,174.55-30,87.27,30,174.54,30,87.28-30,174.56-30,87.27,30,174.55,30"/><path class="cls-1" d="M.71,444.71c87.27,0,87.27,30,174.54,30s87.27-30,174.55-30,87.27,30,174.54,30,87.27-30,174.54-30,87.28,30,174.55,30,87.27-30,174.54-30,87.27,30,174.54,30,87.28-30,174.55-30,87.27,30,174.54,30,87.28-30,174.56-30,87.27,30,174.55,30"/><path class="cls-1" d="M.71,432.71c87.27,0,87.27,30,174.54,30s87.27-30,174.55-30,87.27,30,174.54,30,87.27-30,174.54-30,87.28,30,174.55,30,87.27-30,174.54-30,87.27,30,174.54,30,87.28-30,174.55-30,87.27,30,174.54,30,87.28-30,174.56-30,87.27,30,174.55,30"/><path class="cls-1" d="M.71,420.71c87.27,0,87.27,30,174.54,30s87.27-30,174.55-30,87.27,30,174.54,30,87.27-30,174.54-30,87.28,30,174.55,30,87.27-30,174.54-30,87.27,30,174.54,30,87.28-30,174.55-30,87.27,30,174.54,30,87.28-30,174.56-30,87.27,30,174.55,30"/><path class="cls-1" d="M.71,408.71c87.27,0,87.27,30,174.54,30s87.27-30,174.55-30,87.27,30,174.54,30,87.27-30,174.54-30,87.28,30,174.55,30,87.27-30,174.54-30,87.27,30,174.54,30,87.28-30,174.55-30,87.27,30,174.54,30,87.28-30,174.56-30,87.27,30,174.55,30"/><path class="cls-1" d="M.71,396.71c87.27,0,87.27,30,174.54,30s87.27-30,174.55-30,87.27,30,174.54,30,87.27-30,174.54-30,87.28,30,174.55,30,87.27-30,174.54-30,87.27,30,174.54,30,87.28-30,174.55-30,87.27,30,174.54,30,87.28-30,174.56-30,87.27,30,174.55,30"/><path class="cls-1" d="M.71,384.71c87.27,0,87.27,30,174.54,30s87.27-30,174.55-30,87.27,30,174.54,30,87.27-30,174.54-30,87.28,30,174.55,30,87.27-30,174.54-30,87.27,30,174.54,30,87.28-30,174.55-30,87.27,30,174.54,30,87.28-30,174.56-30,87.27,30,174.55,30"/><path class="cls-1" d="M.71,372.71c87.27,0,87.27,30,174.54,30s87.27-30,174.55-30,87.27,30,174.54,30,87.27-30,174.54-30,87.28,30,174.55,30,87.27-30,174.54-30,87.27,30,174.54,30,87.28-30,174.55-30,87.27,30,174.54,30,87.28-30,174.56-30,87.27,30,174.55,30"/><path class="cls-1" d="M.71,360.71c87.27,0,87.27,30,174.54,30s87.27-30,174.55-30,87.27,30,174.54,30,87.27-30,174.54-30,87.28,30,174.55,30,87.27-30,174.54-30,87.27,30,174.54,30,87.28-30,174.55-30,87.27,30,174.54,30,87.28-30,174.56-30,87.27,30,174.55,30"/><path class="cls-1" d="M.71,348.71c87.27,0,87.27,30,174.54,30s87.27-30,174.55-30,87.27,30,174.54,30,87.27-30,174.54-30,87.28,30,174.55,30,87.27-30,174.54-30,87.27,30,174.54,30,87.28-30,174.55-30,87.27,30,174.54,30,87.28-30,174.56-30,87.27,30,174.55,30"/><path class="cls-1" d="M.71,336.71c87.27,0,87.27,30,174.54,30s87.27-30,174.55-30,87.27,30,174.54,30,87.27-30,174.54-30,87.28,30,174.55,30,87.27-30,174.54-30,87.27,30,174.54,30,87.28-30,174.55-30,87.27,30,174.54,30,87.28-30,174.56-30,87.27,30,174.55,30"/><path class="cls-1" d="M.71,324.71c87.27,0,87.27,30,174.54,30s87.27-30,174.55-30,87.27,30,174.54,30,87.27-30,174.54-30,87.28,30,174.55,30,87.27-30,174.54-30,87.27,30,174.54,30,87.28-30,174.55-30,87.27,30,174.54,30,87.28-30,174.56-30,87.27,30,174.55,30"/><path class="cls-1" d="M.71,312.71c87.27,0,87.27,30,174.54,30s87.27-30,174.55-30,87.27,30,174.54,30,87.27-30,174.54-30,87.28,30,174.55,30,87.27-30,174.54-30,87.27,30,174.54,30,87.28-30,174.55-30,87.27,30,174.54,30,87.28-30,174.56-30,87.27,30,174.55,30"/><path class="cls-1" d="M.71,300.71c87.27,0,87.27,30,174.54,30s87.27-30,174.55-30,87.27,30,174.54,30,87.27-30,174.54-30,87.28,30,174.55,30,87.27-30,174.54-30,87.27,30,174.54,30,87.28-30,174.55-30,87.27,30,174.54,30,87.28-30,174.56-30,87.27,30,174.55,30"/><path class="cls-1" d="M.71,288.71c87.27,0,87.27,30,174.54,30s87.27-30,174.55-30,87.27,30,174.54,30,87.27-30,174.54-30,87.28,30,174.55,30,87.27-30,174.54-30,87.27,30,174.54,30,87.28-30,174.55-30,87.27,30,174.54,30,87.28-30,174.56-30,87.27,30,174.55,30"/><path class="cls-1" d="M.71,276.71c87.27,0,87.27,30,174.54,30s87.27-30,174.55-30,87.27,30,174.54,30,87.27-30,174.54-30,87.28,30,174.55,30,87.27-30,174.54-30,87.27,30,174.54,30,87.28-30,174.55-30,87.27,30,174.54,30,87.28-30,174.56-30,87.27,30,174.55,30"/><path class="cls-1" d="M.71,264.71c87.27,0,87.27,30,174.54,30s87.27-30,174.55-30,87.27,30,174.54,30,87.27-30,174.54-30,87.28,30,174.55,30,87.27-30,174.54-30,87.27,30,174.54,30,87.28-30,174.55-30,87.27,30,174.54,30,87.28-30,174.56-30,87.27,30,174.55,30"/><path class="cls-1" d="M.71,252.71c87.27,0,87.27,30,174.54,30s87.27-30,174.55-30,87.27,30,174.54,30,87.27-30,174.54-30,87.28,30,174.55,30,87.27-30,174.54-30,87.27,30,174.54,30,87.28-30,174.55-30,87.27,30,174.54,30,87.28-30,174.56-30,87.27,30,174.55,30"/><path class="cls-1" d="M.71,240.71c87.27,0,87.27,30,174.54,30s87.27-30,174.55-30,87.27,30,174.54,30,87.27-30,174.54-30,87.28,30,174.55,30,87.27-30,174.54-30,87.27,30,174.54,30,87.28-30,174.55-30,87.27,30,174.54,30,87.28-30,174.56-30,87.27,30,174.55,30"/><path class="cls-1" d="M.71,228.71c87.27,0,87.27,30,174.54,30s87.27-30,174.55-30,87.27,30,174.54,30,87.27-30,174.54-30,87.28,30,174.55,30,87.27-30,174.54-30,87.27,30,174.54,30,87.28-30,174.55-30,87.27,30,174.54,30,87.28-30,174.56-30,87.27,30,174.55,30"/><path class="cls-1" d="M.71,216.71c87.27,0,87.27,30,174.54,30s87.27-30,174.55-30,87.27,30,174.54,30,87.27-30,174.54-30,87.28,30,174.55,30,87.27-30,174.54-30,87.27,30,174.54,30,87.28-30,174.55-30,87.27,30,174.54,30,87.28-30,174.56-30,87.27,30,174.55,30"/><path class="cls-1" d="M.71,204.71c87.27,0,87.27,30,174.54,30s87.27-30,174.55-30,87.27,30,174.54,30,87.27-30,174.54-30,87.28,30,174.55,30,87.27-30,174.54-30,87.27,30,174.54,30,87.28-30,174.55-30,87.27,30,174.54,30,87.28-30,174.56-30,87.27,30,174.55,30"/><path class="cls-1" d="M.71,192.71c87.27,0,87.27,30,174.54,30s87.27-30,174.55-30,87.27,30,174.54,30,87.27-30,174.54-30,87.28,30,174.55,30,87.27-30,174.54-30,87.27,30,174.54,30,87.28-30,174.55-30,87.27,30,174.54,30,87.28-30,174.56-30,87.27,30,174.55,30"/><path class="cls-1" d="M.71,180.71c87.27,0,87.27,30,174.54,30s87.27-30,174.55-30,87.27,30,174.54,30,87.27-30,174.54-30,87.28,30,174.55,30,87.27-30,174.54-30,87.27,30,174.54,30,87.28-30,174.55-30,87.27,30,174.54,30,87.28-30,174.56-30,87.27,30,174.55,30"/><path class="cls-1" d="M.71,168.71c87.27,0,87.27,30,174.54,30s87.27-30,174.55-30,87.27,30,174.54,30,87.27-30,174.54-30,87.28,30,174.55,30,87.27-30,174.54-30,87.27,30,174.54,30,87.28-30,174.55-30,87.27,30,174.54,30,87.28-30,174.56-30,87.27,30,174.55,30"/><path class="cls-1" d="M.71,156.71c87.27,0,87.27,30,174.54,30s87.27-30,174.55-30,87.27,30,174.54,30,87.27-30,174.54-30,87.28,30,174.55,30,87.27-30,174.54-30,87.27,30,174.54,30,87.28-30,174.55-30,87.27,30,174.54,30,87.28-30,174.56-30,87.27,30,174.55,30"/><path class="cls-1" d="M.71,144.71c87.27,0,87.27,30,174.54,30s87.27-30,174.55-30,87.27,30,174.54,30,87.27-30,174.54-30,87.28,30,174.55,30,87.27-30,174.54-30,87.27,30,174.54,30,87.28-30,174.55-30,87.27,30,174.54,30,87.28-30,174.56-30,87.27,30,174.55,30"/><path class="cls-1" d="M.71,132.71c87.27,0,87.27,30,174.54,30s87.27-30,174.55-30,87.27,30,174.54,30,87.27-30,174.54-30,87.28,30,174.55,30,87.27-30,174.54-30,87.27,30,174.54,30,87.28-30,174.55-30,87.27,30,174.54,30,87.28-30,174.56-30,87.27,30,174.55,30"/><path class="cls-1" d="M.71,120.71c87.27,0,87.27,30,174.54,30s87.27-30,174.55-30,87.27,30,174.54,30,87.27-30,174.54-30,87.28,30,174.55,30,87.27-30,174.54-30,87.27,30,174.54,30,87.28-30,174.55-30,87.27,30,174.54,30,87.28-30,174.56-30,87.27,30,174.55,30"/><path class="cls-1" d="M.71,108.71c87.27,0,87.27,30,174.54,30s87.27-30,174.55-30,87.27,30,174.54,30,87.27-30,174.54-30,87.28,30,174.55,30,87.27-30,174.54-30,87.27,30,174.54,30,87.28-30,174.55-30,87.27,30,174.54,30,87.28-30,174.56-30,87.27,30,174.55,30"/><path class="cls-1" d="M.71,96.71c87.27,0,87.27,30,174.54,30s87.27-30,174.55-30,87.27,30,174.54,30,87.27-30,174.54-30,87.28,30,174.55,30,87.27-30,174.54-30,87.27,30,174.54,30,87.28-30,174.55-30,87.27,30,174.54,30,87.28-30,174.56-30,87.27,30,174.55,30"/><path class="cls-1" d="M.71,84.71c87.27,0,87.27,30,174.54,30s87.27-30,174.55-30,87.27,30,174.54,30,87.27-30,174.54-30,87.28,30,174.55,30,87.27-30,174.54-30,87.27,30,174.54,30,87.28-30,174.55-30,87.27,30,174.54,30,87.28-30,174.56-30,87.27,30,174.55,30"/><path class="cls-1" d="M.71,72.71c87.27,0,87.27,30,174.54,30s87.27-30,174.55-30,87.27,30,174.54,30,87.27-30,174.54-30,87.28,30,174.55,30,87.27-30,174.54-30,87.27,30,174.54,30,87.28-30,174.55-30,87.27,30,174.54,30,87.28-30,174.56-30,87.27,30,174.55,30"/><path class="cls-1" d="M.71,60.71c87.27,0,87.27,30,174.54,30s87.27-30,174.55-30,87.27,30,174.54,30,87.27-30,174.54-30,87.28,30,174.55,30,87.27-30,174.54-30,87.27,30,174.54,30,87.28-30,174.55-30,87.27,30,174.54,30,87.28-30,174.56-30,87.27,30,174.55,30"/><path class="cls-1" d="M.71,48.71c87.27,0,87.27,30,174.54,30s87.27-30,174.55-30,87.27,30,174.54,30,87.27-30,174.54-30,87.28,30,174.55,30,87.27-30,174.54-30,87.27,30,174.54,30,87.28-30,174.55-30,87.27,30,174.54,30,87.28-30,174.56-30,87.27,30,174.55,30"/><path class="cls-1" d="M.71,36.71c87.27,0,87.27,30,174.54,30s87.27-30,174.55-30,87.27,30,174.54,30,87.27-30,174.54-30,87.28,30,174.55,30,87.27-30,174.54-30,87.27,30,174.54,30,87.28-30,174.55-30,87.27,30,174.54,30,87.28-30,174.56-30,87.27,30,174.55,30"/><path class="cls-1" d="M.71,24.71c87.27,0,87.27,30,174.54,30s87.27-30,174.55-30,87.27,30,174.54,30,87.27-30,174.54-30,87.28,30,174.55,30,87.27-30,174.54-30,87.27,30,174.54,30,87.28-30,174.55-30,87.27,30,174.54,30,87.28-30,174.56-30,87.27,30,174.55,30"/><path class="cls-1" d="M.71,12.71c87.27,0,87.27,30,174.54,30s87.27-30,174.55-30,87.27,30,174.54,30,87.27-30,174.54-30,87.28,30,174.55,30,87.27-30,174.54-30,87.27,30,174.54,30,87.28-30,174.55-30,87.27,30,174.54,30,87.28-30,174.56-30,87.27,30,174.55,30"/><path class="cls-1" d="M.71.71c87.27,0,87.27,30,174.54,30S262.52.71,349.8.71s87.27,30,174.54,30,87.27-30,174.54-30,87.28,30,174.55,30S960.7.71,1048,.71s87.27,30,174.54,30,87.28-30,174.55-30,87.27,30,174.54,30,87.28-30,174.56-30,87.27,30,174.55,30"/></g></g></svg>